<svg width="1440" height="2758" viewBox="0 0 1440 2758" fill="none" xmlns="http://www.w3.org/2000/svg">
<rect width="1440" height="2758" fill="#F9F9F9"/>
<rect x="109" width="1222" height="2171" fill="white"/>
<rect y="189" width="1440" height="60" fill="#FCBB14"/>
<rect x="65" y="791" width="43.3468" height="60" fill="#FCBB14"/>
<rect x="283.388" y="791" width="43.3468" height="60" fill="#FCBB14"/>
<rect x="327.066" y="791" width="43.3468" height="60" fill="#FCBB14"/>
<rect x="370.744" y="791" width="43.3468" height="60" fill="#FCBB14"/>
<rect x="414.422" y="791" width="43.3468" height="60" fill="#FCBB14"/>
<rect x="458.099" y="791" width="43.3468" height="60" fill="#FCBB14"/>
<rect x="501.777" y="791" width="43.3468" height="60" fill="#FCBB14"/>
<rect x="545.455" y="791" width="43.3468" height="60" fill="#FCBB14"/>
<rect x="589.132" y="791" width="43.3468" height="60" fill="#FCBB14"/>
<rect x="632.811" y="791" width="43.3468" height="60" fill="#FCBB14"/>
<rect x="632.811" y="791" width="43.3468" height="60" fill="#FCBB14"/>
<rect x="676.487" y="791" width="43.3468" height="60" fill="#FCBB14"/>
<rect x="720.166" y="791" width="43.3468" height="60" fill="#FCBB14"/>
<rect x="720.166" y="791" width="43.3468" height="60" fill="#FCBB14"/>
<rect x="763.843" y="791" width="43.3468" height="60" fill="#FCBB14"/>
<rect x="763.843" y="791" width="43.3468" height="60" fill="#FCBB14"/>
<rect x="807.521" y="791" width="43.3468" height="60" fill="#FCBB14"/>
<rect x="807.521" y="791" width="43.3468" height="60" fill="#FCBB14"/>
<rect x="851.198" y="791" width="43.3468" height="60" fill="#FCBB14"/>
<rect x="851.198" y="791" width="43.3468" height="60" fill="#FCBB14"/>
<rect x="894.876" y="791" width="43.3468" height="60" fill="#FCBB14"/>
<rect x="894.876" y="791" width="43.3468" height="60" fill="#FCBB14"/>
<rect x="938.554" y="791" width="43.3468" height="60" fill="#FCBB14"/>
<rect x="938.554" y="791" width="43.3468" height="60" fill="#FCBB14"/>
<rect x="982.231" y="791" width="43.3468" height="60" fill="#FCBB14"/>
<rect x="982.231" y="791" width="43.3468" height="60" fill="#FCBB14"/>
<rect x="1025.91" y="791" width="43.3468" height="60" fill="#FCBB14"/>
<rect x="1025.91" y="791" width="43.3468" height="60" fill="#FCBB14"/>
<rect x="1069.59" y="791" width="43.3468" height="60" fill="#FCBB14"/>
<rect x="1069.59" y="791" width="43.3468" height="60" fill="#FCBB14"/>
<rect x="1113.26" y="791" width="43.3468" height="60" fill="#FCBB14"/>
<rect x="1113.26" y="791" width="43.3468" height="60" fill="#FCBB14"/>
<rect x="1156.94" y="791" width="43.3468" height="60" fill="#FCBB14"/>
<rect x="1156.94" y="791" width="43.3468" height="60" fill="#FCBB14"/>
<rect x="1200.62" y="791" width="43.3468" height="60" fill="#FCBB14"/>
<rect x="1200.62" y="791" width="43.3468" height="60" fill="#FCBB14"/>
<rect x="1244.3" y="791" width="43.3468" height="60" fill="#FCBB14"/>
<rect x="1244.3" y="791" width="43.3468" height="60" fill="#FCBB14"/>
<rect x="1287.98" y="791" width="43.3468" height="60" fill="#FCBB14"/>
<rect x="1287.98" y="791" width="43.3468" height="60" fill="#FCBB14"/>
<rect x="1331.65" y="791" width="43.3468" height="60" fill="#FCBB14"/>
<rect x="1331.65" y="791" width="43.3468" height="60" fill="#FCBB14"/>
<rect x="152.355" y="791" width="43.3468" height="60" fill="#FCBB14"/>
<rect x="239.711" y="791" width="43.3468" height="60" fill="#FCBB14"/>
<rect x="196.033" y="791" width="43.3468" height="60" fill="#FCBB14"/>
<rect x="108.678" y="791" width="43.3468" height="60" fill="#FCBB14"/>
<circle cx="1274" cy="117" r="27" fill="#C4C4C4"/>
<rect x="854" y="90" width="328" height="54" rx="27" fill="#EFEFEF"/>
<path d="M700.497 121.608V123H692.369V111.8H700.273V113.192H693.969V116.632H699.585V117.992H693.969V121.608H700.497ZM706.05 119.416H704.29V123H702.754V114.52H704.29V118.104H706.082L708.834 114.52H710.482L707.266 118.6L710.706 123H708.898L706.05 119.416ZM715.184 114.44C716.357 114.44 717.253 114.728 717.872 115.304C718.501 115.88 718.816 116.739 718.816 117.88V123H717.36V121.88C717.104 122.275 716.736 122.579 716.256 122.792C715.787 122.995 715.227 123.096 714.576 123.096C713.627 123.096 712.864 122.867 712.288 122.408C711.723 121.949 711.44 121.347 711.44 120.6C711.44 119.853 711.712 119.256 712.256 118.808C712.8 118.349 713.664 118.12 714.848 118.12H717.28V117.816C717.28 117.155 717.088 116.648 716.704 116.296C716.32 115.944 715.755 115.768 715.008 115.768C714.507 115.768 714.016 115.853 713.536 116.024C713.056 116.184 712.651 116.403 712.32 116.68L711.68 115.528C712.117 115.176 712.64 114.909 713.248 114.728C713.856 114.536 714.501 114.44 715.184 114.44ZM714.832 121.912C715.419 121.912 715.925 121.784 716.352 121.528C716.779 121.261 717.088 120.888 717.28 120.408V119.224H714.912C713.611 119.224 712.96 119.661 712.96 120.536C712.96 120.963 713.125 121.299 713.456 121.544C713.787 121.789 714.245 121.912 714.832 121.912ZM727.902 115.864H724.798V123H723.262V115.864H720.158V114.52H727.902V115.864ZM736.761 118.808C736.761 118.925 736.751 119.08 736.729 119.272H729.849C729.945 120.019 730.271 120.621 730.825 121.08C731.391 121.528 732.089 121.752 732.921 121.752C733.935 121.752 734.751 121.411 735.369 120.728L736.217 121.72C735.833 122.168 735.353 122.509 734.777 122.744C734.212 122.979 733.577 123.096 732.873 123.096C731.977 123.096 731.183 122.915 730.489 122.552C729.796 122.179 729.257 121.661 728.873 121C728.5 120.339 728.313 119.592 728.313 118.76C728.313 117.939 728.495 117.197 728.857 116.536C729.231 115.875 729.737 115.363 730.377 115C731.028 114.627 731.759 114.44 732.569 114.44C733.38 114.44 734.1 114.627 734.729 115C735.369 115.363 735.865 115.875 736.217 116.536C736.58 117.197 736.761 117.955 736.761 118.808ZM732.569 115.736C731.833 115.736 731.215 115.96 730.713 116.408C730.223 116.856 729.935 117.443 729.849 118.168H735.289C735.204 117.453 734.911 116.872 734.409 116.424C733.919 115.965 733.305 115.736 732.569 115.736ZM743.64 114.44C744.462 114.44 745.198 114.621 745.848 114.984C746.499 115.347 747.006 115.853 747.368 116.504C747.742 117.155 747.928 117.907 747.928 118.76C747.928 119.613 747.742 120.371 747.368 121.032C747.006 121.683 746.499 122.189 745.848 122.552C745.198 122.915 744.462 123.096 743.64 123.096C743.032 123.096 742.472 122.979 741.96 122.744C741.459 122.509 741.032 122.168 740.68 121.72V126.104H739.144V114.52H740.616V115.864C740.958 115.395 741.39 115.043 741.912 114.808C742.435 114.563 743.011 114.44 743.64 114.44ZM743.512 121.752C744.056 121.752 744.542 121.629 744.968 121.384C745.406 121.128 745.747 120.776 745.992 120.328C746.248 119.869 746.376 119.347 746.376 118.76C746.376 118.173 746.248 117.656 745.992 117.208C745.747 116.749 745.406 116.397 744.968 116.152C744.542 115.907 744.056 115.784 743.512 115.784C742.979 115.784 742.494 115.912 742.056 116.168C741.63 116.413 741.288 116.76 741.032 117.208C740.787 117.656 740.664 118.173 740.664 118.76C740.664 119.347 740.787 119.869 741.032 120.328C741.278 120.776 741.619 121.128 742.056 121.384C742.494 121.629 742.979 121.752 743.512 121.752ZM750.16 114.52H751.696V120.696L756.896 114.52H758.288V123H756.752V116.824L751.568 123H750.16V114.52ZM761.269 114.52H762.805V118.12H767.637V114.52H769.173V123H767.637V119.448H762.805V123H761.269V114.52ZM776.48 114.808C777.269 114.808 777.973 114.984 778.592 115.336C779.211 115.688 779.691 116.179 780.032 116.808C780.384 117.427 780.56 118.136 780.56 118.936C780.56 119.757 780.373 120.488 780 121.128C779.637 121.757 779.12 122.248 778.448 122.6C777.787 122.952 777.029 123.128 776.176 123.128C774.736 123.128 773.621 122.637 772.832 121.656C772.053 120.664 771.664 119.272 771.664 117.48C771.664 115.741 772.021 114.381 772.736 113.4C773.451 112.408 774.544 111.752 776.016 111.432L779.888 110.568L780.112 111.976L776.544 112.744C775.435 112.989 774.608 113.405 774.064 113.992C773.52 114.579 773.211 115.421 773.136 116.52C773.499 115.976 773.968 115.555 774.544 115.256C775.12 114.957 775.765 114.808 776.48 114.808ZM776.208 121.848C776.752 121.848 777.232 121.725 777.648 121.48C778.075 121.235 778.405 120.899 778.64 120.472C778.875 120.035 778.992 119.539 778.992 118.984C778.992 118.141 778.736 117.464 778.224 116.952C777.712 116.44 777.04 116.184 776.208 116.184C775.376 116.184 774.699 116.44 774.176 116.952C773.664 117.464 773.408 118.141 773.408 118.984C773.408 119.539 773.525 120.035 773.76 120.472C774.005 120.899 774.341 121.235 774.768 121.48C775.195 121.725 775.675 121.848 776.208 121.848ZM790.087 114.52L785.975 123.848C785.613 124.712 785.186 125.32 784.695 125.672C784.215 126.024 783.634 126.2 782.951 126.2C782.535 126.2 782.13 126.131 781.735 125.992C781.351 125.864 781.031 125.672 780.775 125.416L781.431 124.264C781.869 124.68 782.375 124.888 782.951 124.888C783.325 124.888 783.634 124.787 783.879 124.584C784.135 124.392 784.365 124.056 784.567 123.576L784.839 122.984L781.095 114.52H782.695L785.655 121.304L788.583 114.52H790.087ZM796.156 114.44C796.977 114.44 797.713 114.621 798.364 114.984C799.015 115.347 799.521 115.853 799.884 116.504C800.257 117.155 800.444 117.907 800.444 118.76C800.444 119.613 800.257 120.371 799.884 121.032C799.521 121.683 799.015 122.189 798.364 122.552C797.713 122.915 796.977 123.096 796.156 123.096C795.548 123.096 794.988 122.979 794.476 122.744C793.975 122.509 793.548 122.168 793.196 121.72V126.104H791.66V114.52H793.132V115.864C793.473 115.395 793.905 115.043 794.428 114.808C794.951 114.563 795.527 114.44 796.156 114.44ZM796.028 121.752C796.572 121.752 797.057 121.629 797.484 121.384C797.921 121.128 798.263 120.776 798.508 120.328C798.764 119.869 798.892 119.347 798.892 118.76C798.892 118.173 798.764 117.656 798.508 117.208C798.263 116.749 797.921 116.397 797.484 116.152C797.057 115.907 796.572 115.784 796.028 115.784C795.495 115.784 795.009 115.912 794.572 116.168C794.145 116.413 793.804 116.76 793.548 117.208C793.303 117.656 793.18 118.173 793.18 118.76C793.18 119.347 793.303 119.869 793.548 120.328C793.793 120.776 794.135 121.128 794.572 121.384C795.009 121.629 795.495 121.752 796.028 121.752ZM808.916 115.864H804.212V123H802.676V114.52H808.916V115.864Z" fill="black"/>
<path d="M1256.52 155.668C1257.11 155.788 1257.55 156.024 1257.85 156.376C1258.16 156.72 1258.31 157.172 1258.31 157.732C1258.31 158.46 1258.05 159.02 1257.53 159.412C1257.02 159.804 1256.26 160 1255.26 160H1251.54V151.6H1255.03C1255.93 151.6 1256.63 151.784 1257.13 152.152C1257.64 152.52 1257.89 153.052 1257.89 153.748C1257.89 154.22 1257.77 154.62 1257.53 154.948C1257.29 155.268 1256.95 155.508 1256.52 155.668ZM1252.42 155.404H1254.99C1255.63 155.404 1256.13 155.272 1256.47 155.008C1256.83 154.744 1257 154.36 1257 153.856C1257 153.352 1256.83 152.968 1256.47 152.704C1256.13 152.44 1255.63 152.308 1254.99 152.308H1252.42V155.404ZM1255.26 159.292C1256.71 159.292 1257.43 158.752 1257.43 157.672C1257.43 156.616 1256.71 156.088 1255.26 156.088H1252.42V159.292H1255.26ZM1262.5 153.64C1263.32 153.64 1263.95 153.848 1264.39 154.264C1264.83 154.672 1265.05 155.28 1265.05 156.088V160H1264.24V159.016C1264.05 159.344 1263.76 159.6 1263.39 159.784C1263.02 159.968 1262.58 160.06 1262.07 160.06C1261.36 160.06 1260.8 159.892 1260.39 159.556C1259.97 159.22 1259.76 158.776 1259.76 158.224C1259.76 157.688 1259.95 157.256 1260.34 156.928C1260.73 156.6 1261.35 156.436 1262.2 156.436H1264.2V156.052C1264.2 155.508 1264.05 155.096 1263.75 154.816C1263.44 154.528 1263 154.384 1262.41 154.384C1262.01 154.384 1261.63 154.452 1261.26 154.588C1260.89 154.716 1260.58 154.896 1260.31 155.128L1259.93 154.492C1260.25 154.22 1260.63 154.012 1261.08 153.868C1261.53 153.716 1262 153.64 1262.5 153.64ZM1262.2 159.388C1262.68 159.388 1263.09 159.28 1263.43 159.064C1263.78 158.84 1264.03 158.52 1264.2 158.104V157.072H1262.22C1261.14 157.072 1260.6 157.448 1260.6 158.2C1260.6 158.568 1260.74 158.86 1261.02 159.076C1261.3 159.284 1261.69 159.388 1262.2 159.388ZM1272.48 153.688V160H1271.63V154.444H1268.61L1268.52 156.004C1268.46 157.316 1268.31 158.324 1268.07 159.028C1267.83 159.732 1267.4 160.084 1266.78 160.084C1266.61 160.084 1266.41 160.052 1266.17 159.988L1266.23 159.256C1266.37 159.288 1266.47 159.304 1266.53 159.304C1266.86 159.304 1267.11 159.152 1267.27 158.848C1267.44 158.544 1267.55 158.168 1267.61 157.72C1267.67 157.272 1267.71 156.68 1267.75 155.944L1267.86 153.688H1272.48ZM1280.42 157.108H1275.14C1275.19 157.764 1275.44 158.296 1275.9 158.704C1276.36 159.104 1276.93 159.304 1277.63 159.304C1278.02 159.304 1278.38 159.236 1278.71 159.1C1279.04 158.956 1279.32 158.748 1279.56 158.476L1280.04 159.028C1279.76 159.364 1279.41 159.62 1278.98 159.796C1278.57 159.972 1278.11 160.06 1277.6 160.06C1276.96 160.06 1276.38 159.924 1275.88 159.652C1275.38 159.372 1274.99 158.988 1274.71 158.5C1274.43 158.012 1274.29 157.46 1274.29 156.844C1274.29 156.228 1274.42 155.676 1274.69 155.188C1274.96 154.7 1275.33 154.32 1275.79 154.048C1276.26 153.776 1276.79 153.64 1277.38 153.64C1277.96 153.64 1278.48 153.776 1278.95 154.048C1279.41 154.32 1279.78 154.7 1280.04 155.188C1280.3 155.668 1280.44 156.22 1280.44 156.844L1280.42 157.108ZM1277.38 154.372C1276.77 154.372 1276.26 154.568 1275.84 154.96C1275.43 155.344 1275.2 155.848 1275.14 156.472H1279.62C1279.56 155.848 1279.33 155.344 1278.91 154.96C1278.5 154.568 1277.99 154.372 1277.38 154.372ZM1285.57 153.64C1286.17 153.64 1286.7 153.776 1287.18 154.048C1287.66 154.312 1288.04 154.688 1288.31 155.176C1288.58 155.664 1288.72 156.22 1288.72 156.844C1288.72 157.476 1288.58 158.036 1288.31 158.524C1288.04 159.012 1287.66 159.392 1287.18 159.664C1286.71 159.928 1286.17 160.06 1285.57 160.06C1285.06 160.06 1284.6 159.956 1284.18 159.748C1283.77 159.532 1283.44 159.22 1283.17 158.812V162.328H1282.32V153.688H1283.14V154.936C1283.39 154.52 1283.73 154.2 1284.15 153.976C1284.57 153.752 1285.05 153.64 1285.57 153.64ZM1285.51 159.304C1285.95 159.304 1286.35 159.204 1286.71 159.004C1287.07 158.796 1287.35 158.504 1287.55 158.128C1287.76 157.752 1287.87 157.324 1287.87 156.844C1287.87 156.364 1287.76 155.94 1287.55 155.572C1287.35 155.196 1287.07 154.904 1286.71 154.696C1286.35 154.488 1285.95 154.384 1285.51 154.384C1285.07 154.384 1284.66 154.488 1284.3 154.696C1283.95 154.904 1283.67 155.196 1283.46 155.572C1283.26 155.94 1283.16 156.364 1283.16 156.844C1283.16 157.324 1283.26 157.752 1283.46 158.128C1283.67 158.504 1283.95 158.796 1284.3 159.004C1284.66 159.204 1285.07 159.304 1285.51 159.304ZM1290.55 153.688H1291.4V158.704L1295.61 153.688H1296.37V160H1295.52V154.984L1291.32 160H1290.55V153.688ZM1303.66 153.688V160H1302.88V157.912H1300.9H1300.66L1299.19 160H1298.27L1299.84 157.792C1299.35 157.656 1298.98 157.424 1298.71 157.096C1298.45 156.768 1298.32 156.352 1298.32 155.848C1298.32 155.144 1298.56 154.608 1299.04 154.24C1299.52 153.872 1300.17 153.688 1301.01 153.688H1303.66ZM1299.18 155.872C1299.18 156.808 1299.78 157.276 1300.97 157.276H1302.88V154.444H1301.03C1299.8 154.444 1299.18 154.92 1299.18 155.872Z" fill="black"/>
<path d="M1250.12 161.2H1304.87V161.8H1250.12V161.2Z" fill="black"/>
<path d="M894.847 128.374L887.585 121.112C888.963 119.412 889.792 117.25 889.792 114.896C889.792 109.439 885.352 105 879.896 105C874.439 105 870 109.439 870 114.896C870 120.352 874.439 124.792 879.896 124.792C882.25 124.792 884.412 123.963 886.112 122.585L893.374 129.847C893.578 130.051 893.908 130.051 894.111 129.847L894.847 129.111C895.051 128.908 895.051 128.578 894.847 128.374ZM879.896 122.708C875.588 122.708 872.083 119.204 872.083 114.896C872.083 110.588 875.588 107.083 879.896 107.083C884.204 107.083 887.708 110.588 887.708 114.896C887.708 119.204 884.204 122.708 879.896 122.708Z" fill="#C4C4C4"/>
<path d="M673.5 106C668.654 106 664.711 109.943 664.711 114.789C664.711 116.426 665.165 118.024 666.023 119.411L673 130.654C673.133 130.869 673.369 131 673.622 131C673.624 131 673.626 131 673.628 131C673.883 130.998 674.119 130.863 674.25 130.644L681.049 119.292C681.86 117.935 682.289 116.378 682.289 114.789C682.289 109.943 678.346 106 673.5 106ZM679.792 118.54L673.611 128.861L667.268 118.639C666.553 117.485 666.166 116.154 666.166 114.789C666.166 110.75 669.461 107.455 673.5 107.455C677.539 107.455 680.829 110.75 680.829 114.789C680.829 116.113 680.467 117.411 679.792 118.54Z" fill="black"/>
<path d="M673.5 110.395C671.077 110.395 669.105 112.366 669.105 114.789C669.105 117.197 671.045 119.184 673.5 119.184C675.985 119.184 677.895 117.17 677.895 114.789C677.895 112.366 675.923 110.395 673.5 110.395ZM673.5 117.729C671.876 117.729 670.561 116.409 670.561 114.789C670.561 113.174 671.885 111.85 673.5 111.85C675.115 111.85 676.435 113.174 676.435 114.789C676.435 116.385 675.15 117.729 673.5 117.729Z" fill="black"/>
<rect x="65" y="294" width="1310" height="461" rx="20" fill="#FFD967"/>
<rect x="65" y="294" width="1310" height="461" rx="20" fill="#FFD967"/>
<g filter="url(#filter0_d)">
<rect x="65" y="294" width="1310" height="461" rx="20" fill="#FFD967"/>
<rect x="65" y="294" width="1310" height="461" rx="20" fill="#C0C0C0" fill-opacity="0.13"/>
<rect x="66" y="295" width="1308" height="459" rx="19" stroke="black" stroke-width="2"/>
</g>
<path d="M1315.71 509L1330.7 523.707L1315.99 538.697" stroke="white" stroke-width="4" stroke-linecap="round" stroke-linejoin="round"/>
<path d="M1391.71 806L1406.7 820.707L1391.99 835.697" stroke="black" stroke-width="4" stroke-linecap="round" stroke-linejoin="round"/>
<path d="M260.404 894L268.97 902.404L260.566 910.97" stroke="black" stroke-width="4" stroke-linecap="round" stroke-linejoin="round"/>
<path d="M440.404 1298L448.97 1306.4L440.566 1314.97" stroke="black" stroke-width="4" stroke-linecap="round" stroke-linejoin="round"/>
<path d="M333.404 1715L341.97 1723.4L333.566 1731.97" stroke="black" stroke-width="4" stroke-linecap="round" stroke-linejoin="round"/>
<path d="M127.429 542.77L109 524.43L127.34 506" stroke="white" stroke-width="4" stroke-linecap="round" stroke-linejoin="round"/>
<path d="M155.72 614.48C152.867 614.48 150.28 613.867 147.96 612.64C145.667 611.387 143.853 609.667 142.52 607.48C141.213 605.267 140.56 602.773 140.56 600C140.56 597.227 141.213 594.747 142.52 592.56C143.853 590.347 145.667 588.627 147.96 587.4C150.28 586.147 152.88 585.52 155.76 585.52C158.187 585.52 160.373 585.947 162.32 586.8C164.293 587.653 165.947 588.88 167.28 590.48L163.12 594.32C161.227 592.133 158.88 591.04 156.08 591.04C154.347 591.04 152.8 591.427 151.44 592.2C150.08 592.947 149.013 594 148.24 595.36C147.493 596.72 147.12 598.267 147.12 600C147.12 601.733 147.493 603.28 148.24 604.64C149.013 606 150.08 607.067 151.44 607.84C152.8 608.587 154.347 608.96 156.08 608.96C158.88 608.96 161.227 607.853 163.12 605.64L167.28 609.48C165.947 611.107 164.293 612.347 162.32 613.2C160.347 614.053 158.147 614.48 155.72 614.48ZM180.361 614.32C178.095 614.32 176.055 613.853 174.241 612.92C172.455 611.96 171.055 610.64 170.041 608.96C169.028 607.28 168.521 605.373 168.521 603.24C168.521 601.107 169.028 599.2 170.041 597.52C171.055 595.84 172.455 594.533 174.241 593.6C176.055 592.64 178.095 592.16 180.361 592.16C182.628 592.16 184.655 592.64 186.441 593.6C188.228 594.533 189.628 595.84 190.641 597.52C191.655 599.2 192.161 601.107 192.161 603.24C192.161 605.373 191.655 607.28 190.641 608.96C189.628 610.64 188.228 611.96 186.441 612.92C184.655 613.853 182.628 614.32 180.361 614.32ZM180.361 609.2C181.961 609.2 183.268 608.667 184.281 607.6C185.321 606.507 185.841 605.053 185.841 603.24C185.841 601.427 185.321 599.987 184.281 598.92C183.268 597.827 181.961 597.28 180.361 597.28C178.761 597.28 177.441 597.827 176.401 598.92C175.361 599.987 174.841 601.427 174.841 603.24C174.841 605.053 175.361 606.507 176.401 607.6C177.441 608.667 178.761 609.2 180.361 609.2ZM208.893 593.96C210.946 593.96 212.746 594.387 214.293 595.24C215.84 596.067 217.026 597.24 217.853 598.76C218.706 600.28 219.133 602.04 219.133 604.04C219.133 606.093 218.626 607.92 217.613 609.52C216.626 611.093 215.24 612.32 213.453 613.2C211.666 614.053 209.64 614.48 207.373 614.48C203.613 614.48 200.653 613.28 198.493 610.88C196.36 608.453 195.293 604.907 195.293 600.24C195.293 595.92 196.226 592.48 198.093 589.92C199.986 587.333 202.88 585.64 206.773 584.84L217.013 582.8L217.853 588.16L208.813 589.96C206.36 590.44 204.533 591.24 203.333 592.36C202.16 593.48 201.466 595.067 201.253 597.12C202.186 596.107 203.306 595.333 204.613 594.8C205.92 594.24 207.346 593.96 208.893 593.96ZM207.413 609.64C209.013 609.64 210.293 609.12 211.253 608.08C212.24 607.04 212.733 605.72 212.733 604.12C212.733 602.493 212.24 601.2 211.253 600.24C210.293 599.28 209.013 598.8 207.413 598.8C205.786 598.8 204.48 599.28 203.493 600.24C202.506 601.2 202.013 602.493 202.013 604.12C202.013 605.747 202.52 607.08 203.533 608.12C204.546 609.133 205.84 609.64 207.413 609.64ZM234.687 599.36C237.487 599.387 239.607 600.013 241.047 601.24C242.487 602.467 243.207 604.227 243.207 606.52C243.207 608.92 242.394 610.773 240.767 612.08C239.141 613.387 236.834 614.04 233.847 614.04L223.367 614V592.48H229.567V599.36H234.687ZM245.527 592.48H251.727V614H245.527V592.48ZM233.287 609.6C234.487 609.627 235.407 609.373 236.047 608.84C236.687 608.307 237.007 607.507 237.007 606.44C237.007 605.4 236.687 604.64 236.047 604.16C235.434 603.68 234.514 603.427 233.287 603.4L229.567 603.36V609.6H233.287ZM275.822 597.6H268.542V614H262.342V597.6H255.062V592.48H275.822V597.6ZM279.148 592.48H285.348V605.28L295.828 592.48H301.548V614H295.348V601.2L284.908 614H279.148V592.48ZM326.667 592.48V614H321.107V607.84H316.507L312.427 614H305.787L310.707 606.96C309.214 606.373 308.067 605.533 307.267 604.44C306.494 603.32 306.107 601.973 306.107 600.4C306.107 597.867 307.014 595.92 308.827 594.56C310.667 593.173 313.187 592.48 316.387 592.48H326.667ZM316.507 597.56C315.174 597.56 314.16 597.8 313.467 598.28C312.8 598.76 312.467 599.533 312.467 600.6C312.467 601.667 312.787 602.453 313.427 602.96C314.094 603.44 315.094 603.68 316.427 603.68H321.107V597.56H316.507ZM343.992 592.48H350.192V600.88H359.552V592.48H365.792V614H359.552V605.96H350.192V614H343.992V592.48ZM392.686 603.32C392.686 603.4 392.646 603.96 392.566 605H376.286C376.579 606.333 377.272 607.387 378.366 608.16C379.459 608.933 380.819 609.32 382.446 609.32C383.566 609.32 384.552 609.16 385.406 608.84C386.286 608.493 387.099 607.96 387.846 607.24L391.166 610.84C389.139 613.16 386.179 614.32 382.286 614.32C379.859 614.32 377.712 613.853 375.846 612.92C373.979 611.96 372.539 610.64 371.526 608.96C370.512 607.28 370.006 605.373 370.006 603.24C370.006 601.133 370.499 599.24 371.486 597.56C372.499 595.853 373.872 594.533 375.606 593.6C377.366 592.64 379.326 592.16 381.486 592.16C383.592 592.16 385.499 592.613 387.206 593.52C388.912 594.427 390.246 595.733 391.206 597.44C392.192 599.12 392.686 601.08 392.686 603.32ZM381.526 596.88C380.112 596.88 378.926 597.28 377.966 598.08C377.006 598.88 376.419 599.973 376.206 601.36H386.806C386.592 600 386.006 598.92 385.046 598.12C384.086 597.293 382.912 596.88 381.526 596.88ZM421.393 608.88V618.64H415.593V614H400.473V618.64H394.673V608.88H395.553C396.887 608.853 397.807 608.067 398.313 606.52C398.82 604.973 399.14 602.773 399.273 599.92L399.553 592.48H418.313V608.88H421.393ZM404.913 600.36C404.833 602.547 404.66 604.333 404.393 605.72C404.153 607.107 403.687 608.16 402.993 608.88H412.073V597.6H405.033L404.913 600.36ZM446.24 603.32C446.24 603.4 446.2 603.96 446.12 605H429.84C430.134 606.333 430.827 607.387 431.92 608.16C433.014 608.933 434.374 609.32 436 609.32C437.12 609.32 438.107 609.16 438.96 608.84C439.84 608.493 440.654 607.96 441.4 607.24L444.72 610.84C442.694 613.16 439.734 614.32 435.84 614.32C433.414 614.32 431.267 613.853 429.4 612.92C427.534 611.96 426.094 610.64 425.08 608.96C424.067 607.28 423.56 605.373 423.56 603.24C423.56 601.133 424.054 599.24 425.04 597.56C426.054 595.853 427.427 594.533 429.16 593.6C430.92 592.64 432.88 592.16 435.04 592.16C437.147 592.16 439.054 592.613 440.76 593.52C442.467 594.427 443.8 595.733 444.76 597.44C445.747 599.12 446.24 601.08 446.24 603.32ZM435.08 596.88C433.667 596.88 432.48 597.28 431.52 598.08C430.56 598.88 429.974 599.973 429.76 601.36H440.36C440.147 600 439.56 598.92 438.6 598.12C437.64 597.293 436.467 596.88 435.08 596.88ZM471.468 592.48V614H465.228V597.6H458.428L458.228 601.4C458.121 604.227 457.855 606.573 457.428 608.44C457.001 610.307 456.308 611.773 455.348 612.84C454.388 613.907 453.055 614.44 451.348 614.44C450.441 614.44 449.361 614.28 448.108 613.96L448.428 608.84C448.855 608.893 449.161 608.92 449.348 608.92C450.281 608.92 450.975 608.587 451.428 607.92C451.908 607.227 452.228 606.36 452.388 605.32C452.548 604.253 452.668 602.853 452.748 601.12L453.068 592.48H471.468ZM477.469 592.48H483.669V605.28L494.149 592.48H499.869V614H493.669V601.2L483.229 614H477.469V592.48Z" fill="black"/>
<path d="M152.08 647.288C153.216 647.56 154.072 648.048 154.648 648.752C155.24 649.44 155.536 650.328 155.536 651.416C155.536 652.872 155 654 153.928 654.8C152.872 655.6 151.328 656 149.296 656H141.616V639.2H148.84C150.68 639.2 152.112 639.576 153.136 640.328C154.176 641.064 154.696 642.128 154.696 643.52C154.696 644.432 154.464 645.208 154 645.848C153.552 646.488 152.912 646.968 152.08 647.288ZM143.992 646.592H148.672C149.84 646.592 150.728 646.36 151.336 645.896C151.96 645.432 152.272 644.752 152.272 643.856C152.272 642.96 151.96 642.28 151.336 641.816C150.712 641.336 149.824 641.096 148.672 641.096H143.992V646.592ZM149.248 654.104C151.824 654.104 153.112 653.144 153.112 651.224C153.112 650.264 152.784 649.56 152.128 649.112C151.488 648.648 150.528 648.416 149.248 648.416H143.992V654.104H149.248ZM164.898 647.6C166.498 647.616 167.722 647.984 168.57 648.704C169.418 649.424 169.842 650.44 169.842 651.752C169.842 653.128 169.378 654.192 168.45 654.944C167.538 655.68 166.226 656.04 164.514 656.024L159.162 656V643.28H161.466V647.576L164.898 647.6ZM171.738 643.28H174.042V656H171.738V643.28ZM164.346 654.272C165.386 654.288 166.17 654.08 166.698 653.648C167.242 653.216 167.514 652.576 167.514 651.728C167.514 650.896 167.25 650.288 166.722 649.904C166.194 649.52 165.402 649.32 164.346 649.304L161.466 649.256V654.248L164.346 654.272ZM185.001 643.712C186.185 643.712 187.241 643.976 188.169 644.504C189.097 645.032 189.817 645.768 190.329 646.712C190.857 647.64 191.121 648.704 191.121 649.904C191.121 651.136 190.841 652.232 190.281 653.192C189.737 654.136 188.961 654.872 187.953 655.4C186.961 655.928 185.825 656.192 184.545 656.192C182.385 656.192 180.713 655.456 179.529 653.984C178.361 652.496 177.777 650.408 177.777 647.72C177.777 645.112 178.313 643.072 179.385 641.6C180.457 640.112 182.097 639.128 184.305 638.648L190.113 637.352L190.449 639.464L185.097 640.616C183.433 640.984 182.193 641.608 181.377 642.488C180.561 643.368 180.097 644.632 179.985 646.28C180.529 645.464 181.233 644.832 182.097 644.384C182.961 643.936 183.929 643.712 185.001 643.712ZM184.593 654.272C185.409 654.272 186.129 654.088 186.753 653.72C187.393 653.352 187.889 652.848 188.241 652.208C188.593 651.552 188.769 650.808 188.769 649.976C188.769 648.712 188.385 647.696 187.617 646.928C186.849 646.16 185.841 645.776 184.593 645.776C183.345 645.776 182.329 646.16 181.545 646.928C180.777 647.696 180.393 648.712 180.393 649.976C180.393 650.808 180.569 651.552 180.921 652.208C181.289 652.848 181.793 653.352 182.433 653.72C183.073 654.088 183.793 654.272 184.593 654.272ZM199.86 656.144C198.596 656.144 197.46 655.864 196.452 655.304C195.444 654.744 194.652 653.976 194.076 653C193.516 652.008 193.236 650.888 193.236 649.64C193.236 648.392 193.516 647.28 194.076 646.304C194.652 645.312 195.444 644.544 196.452 644C197.46 643.44 198.596 643.16 199.86 643.16C201.124 643.16 202.252 643.44 203.244 644C204.252 644.544 205.036 645.312 205.596 646.304C206.172 647.28 206.46 648.392 206.46 649.64C206.46 650.888 206.172 652.008 205.596 653C205.036 653.976 204.252 654.744 203.244 655.304C202.252 655.864 201.124 656.144 199.86 656.144ZM199.86 654.128C200.676 654.128 201.404 653.944 202.044 653.576C202.7 653.192 203.212 652.664 203.58 651.992C203.948 651.304 204.132 650.52 204.132 649.64C204.132 648.76 203.948 647.984 203.58 647.312C203.212 646.624 202.7 646.096 202.044 645.728C201.404 645.36 200.676 645.176 199.86 645.176C199.044 645.176 198.308 645.36 197.652 645.728C197.012 646.096 196.5 646.624 196.116 647.312C195.748 647.984 195.564 648.76 195.564 649.64C195.564 650.52 195.748 651.304 196.116 651.992C196.5 652.664 197.012 653.192 197.652 653.576C198.308 653.944 199.044 654.128 199.86 654.128ZM216.531 643.16C217.763 643.16 218.867 643.432 219.843 643.976C220.819 644.52 221.579 645.28 222.123 646.256C222.683 647.232 222.963 648.36 222.963 649.64C222.963 650.92 222.683 652.056 222.123 653.048C221.579 654.024 220.819 654.784 219.843 655.328C218.867 655.872 217.763 656.144 216.531 656.144C215.619 656.144 214.779 655.968 214.011 655.616C213.259 655.264 212.619 654.752 212.091 654.08V660.656H209.787V643.28H211.995V645.296C212.507 644.592 213.155 644.064 213.939 643.712C214.723 643.344 215.587 643.16 216.531 643.16ZM216.339 654.128C217.155 654.128 217.883 653.944 218.523 653.576C219.179 653.192 219.691 652.664 220.059 651.992C220.443 651.304 220.635 650.52 220.635 649.64C220.635 648.76 220.443 647.984 220.059 647.312C219.691 646.624 219.179 646.096 218.523 645.728C217.883 645.36 217.155 645.176 216.339 645.176C215.539 645.176 214.811 645.368 214.155 645.752C213.515 646.12 213.003 646.64 212.619 647.312C212.251 647.984 212.067 648.76 212.067 649.64C212.067 650.52 212.251 651.304 212.619 651.992C212.987 652.664 213.499 653.192 214.155 653.576C214.811 653.944 215.539 654.128 216.339 654.128ZM237.291 643.16C239.051 643.16 240.395 643.592 241.323 644.456C242.267 645.32 242.739 646.608 242.739 648.32V656H240.555V654.32C240.171 654.912 239.619 655.368 238.899 655.688C238.195 655.992 237.355 656.144 236.379 656.144C234.955 656.144 233.811 655.8 232.947 655.112C232.099 654.424 231.675 653.52 231.675 652.4C231.675 651.28 232.083 650.384 232.899 649.712C233.715 649.024 235.011 648.68 236.787 648.68H240.435V648.224C240.435 647.232 240.147 646.472 239.571 645.944C238.995 645.416 238.147 645.152 237.027 645.152C236.275 645.152 235.539 645.28 234.819 645.536C234.099 645.776 233.491 646.104 232.995 646.52L232.035 644.792C232.691 644.264 233.475 643.864 234.387 643.592C235.299 643.304 236.267 643.16 237.291 643.16ZM236.763 654.368C237.643 654.368 238.403 654.176 239.043 653.792C239.683 653.392 240.147 652.832 240.435 652.112V650.336H236.883C234.931 650.336 233.955 650.992 233.955 652.304C233.955 652.944 234.203 653.448 234.699 653.816C235.195 654.184 235.883 654.368 236.763 654.368ZM258.24 643.28L252.072 657.272C251.528 658.568 250.888 659.48 250.152 660.008C249.432 660.536 248.56 660.8 247.536 660.8C246.912 660.8 246.304 660.696 245.712 660.488C245.136 660.296 244.656 660.008 244.272 659.624L245.256 657.896C245.912 658.52 246.672 658.832 247.536 658.832C248.096 658.832 248.56 658.68 248.928 658.376C249.312 658.088 249.656 657.584 249.96 656.864L250.368 655.976L244.752 643.28H247.152L251.592 653.456L255.984 643.28H258.24ZM272.856 653.984V658.952H270.696V656H260.064V658.952H257.88V653.984H258.552C259.368 653.936 259.928 653.36 260.232 652.256C260.536 651.152 260.743 649.592 260.855 647.576L261.048 643.28H270.911V653.984H272.856ZM262.968 647.744C262.904 649.344 262.768 650.672 262.56 651.728C262.368 652.768 262.008 653.52 261.48 653.984H268.608V645.296H263.088L262.968 647.744ZM275.857 643.28H278.161V652.544L285.961 643.28H288.049V656H285.745V646.736L277.969 656H275.857V643.28ZM302.001 645.296H297.345V656H295.041V645.296H290.385V643.28H302.001V645.296ZM309.243 656.144C307.979 656.144 306.843 655.864 305.835 655.304C304.827 654.744 304.035 653.976 303.459 653C302.899 652.008 302.619 650.888 302.619 649.64C302.619 648.392 302.899 647.28 303.459 646.304C304.035 645.312 304.827 644.544 305.835 644C306.843 643.44 307.979 643.16 309.243 643.16C310.507 643.16 311.635 643.44 312.627 644C313.635 644.544 314.419 645.312 314.979 646.304C315.555 647.28 315.843 648.392 315.843 649.64C315.843 650.888 315.555 652.008 314.979 653C314.419 653.976 313.635 654.744 312.627 655.304C311.635 655.864 310.507 656.144 309.243 656.144ZM309.243 654.128C310.059 654.128 310.787 653.944 311.427 653.576C312.083 653.192 312.595 652.664 312.963 651.992C313.331 651.304 313.515 650.52 313.515 649.64C313.515 648.76 313.331 647.984 312.963 647.312C312.595 646.624 312.083 646.096 311.427 645.728C310.787 645.36 310.059 645.176 309.243 645.176C308.427 645.176 307.691 645.36 307.035 645.728C306.395 646.096 305.883 646.624 305.499 647.312C305.131 647.984 304.947 648.76 304.947 649.64C304.947 650.52 305.131 651.304 305.499 651.992C305.883 652.664 306.395 653.192 307.035 653.576C307.691 653.944 308.427 654.128 309.243 654.128ZM325.914 643.16C327.146 643.16 328.25 643.432 329.226 643.976C330.202 644.52 330.962 645.28 331.506 646.256C332.066 647.232 332.346 648.36 332.346 649.64C332.346 650.92 332.066 652.056 331.506 653.048C330.962 654.024 330.202 654.784 329.226 655.328C328.25 655.872 327.146 656.144 325.914 656.144C325.002 656.144 324.162 655.968 323.394 655.616C322.642 655.264 322.002 654.752 321.474 654.08V660.656H319.17V643.28H321.378V645.296C321.89 644.592 322.538 644.064 323.322 643.712C324.106 643.344 324.97 643.16 325.914 643.16ZM325.722 654.128C326.538 654.128 327.266 653.944 327.906 653.576C328.562 653.192 329.074 652.664 329.442 651.992C329.826 651.304 330.018 650.52 330.018 649.64C330.018 648.76 329.826 647.984 329.442 647.312C329.074 646.624 328.562 646.096 327.906 645.728C327.266 645.36 326.538 645.176 325.722 645.176C324.922 645.176 324.194 645.368 323.538 645.752C322.898 646.12 322.386 646.64 322.002 647.312C321.634 647.984 321.45 648.76 321.45 649.64C321.45 650.52 321.634 651.304 322.002 651.992C322.37 652.664 322.882 653.192 323.538 653.576C324.194 653.944 324.922 654.128 325.722 654.128ZM335.693 643.28H337.997V652.544L345.797 643.28H347.885V656H345.581V646.736L337.805 656H335.693V643.28ZM352.357 643.28H354.661V652.544L362.461 643.28H364.549V656H362.245V646.736L354.469 656H352.357V643.28Z" fill="black"/>
<path d="M184.64 103L175.48 131H168.52L162.36 112.04L156 131H149.08L139.88 103H146.6L152.92 122.68L159.52 103H165.52L171.92 122.84L178.44 103H184.64ZM213.938 103V131H207.458V119.52H194.738V131H188.258V103H194.738V114.04H207.458V103H213.938ZM242.242 125.8V131H220.562V103H241.722V108.2H227.002V114.28H240.002V119.32H227.002V125.8H242.242ZM265.238 131L259.838 123.2H259.518H253.878V131H247.398V103H259.518C261.998 103 264.145 103.413 265.958 104.24C267.798 105.067 269.211 106.24 270.198 107.76C271.185 109.28 271.678 111.08 271.678 113.16C271.678 115.24 271.171 117.04 270.158 118.56C269.171 120.053 267.758 121.2 265.918 122L272.198 131H265.238ZM265.118 113.16C265.118 111.587 264.611 110.387 263.598 109.56C262.585 108.707 261.105 108.28 259.158 108.28H253.878V118.04H259.158C261.105 118.04 262.585 117.613 263.598 116.76C264.611 115.907 265.118 114.707 265.118 113.16ZM298.492 125.8V131H276.812V103H297.972V108.2H283.252V114.28H296.252V119.32H283.252V125.8H298.492ZM314.976 103H321.456V131H314.976V103ZM337.301 131.48C335.088 131.48 332.941 131.187 330.861 130.6C328.808 129.987 327.155 129.2 325.901 128.24L328.101 123.36C329.301 124.24 330.728 124.947 332.381 125.48C334.035 126.013 335.688 126.28 337.341 126.28C339.181 126.28 340.541 126.013 341.421 125.48C342.301 124.92 342.741 124.187 342.741 123.28C342.741 122.613 342.475 122.067 341.941 121.64C341.435 121.187 340.768 120.827 339.941 120.56C339.141 120.293 338.048 120 336.661 119.68C334.528 119.173 332.781 118.667 331.421 118.16C330.061 117.653 328.888 116.84 327.901 115.72C326.941 114.6 326.461 113.107 326.461 111.24C326.461 109.613 326.901 108.147 327.781 106.84C328.661 105.507 329.981 104.453 331.741 103.68C333.528 102.907 335.701 102.52 338.261 102.52C340.048 102.52 341.795 102.733 343.501 103.16C345.208 103.587 346.701 104.2 347.981 105L345.981 109.92C343.395 108.453 340.808 107.72 338.221 107.72C336.408 107.72 335.061 108.013 334.181 108.6C333.328 109.187 332.901 109.96 332.901 110.92C332.901 111.88 333.395 112.6 334.381 113.08C335.395 113.533 336.928 113.987 338.981 114.44C341.115 114.947 342.861 115.453 344.221 115.96C345.581 116.467 346.741 117.267 347.701 118.36C348.688 119.453 349.181 120.933 349.181 122.8C349.181 124.4 348.728 125.867 347.821 127.2C346.941 128.507 345.608 129.547 343.821 130.32C342.035 131.093 339.861 131.48 337.301 131.48ZM370.737 108.28H361.777V103H386.177V108.28H377.217V131H370.737V108.28ZM415.344 103V131H408.864V119.52H396.144V131H389.664V103H396.144V114.04H408.864V103H415.344ZM443.648 125.8V131H421.968V103H443.128V108.2H428.408V114.28H441.408V119.32H428.408V125.8H443.648ZM472.253 103C474.733 103 476.879 103.413 478.693 104.24C480.533 105.067 481.946 106.24 482.933 107.76C483.919 109.28 484.413 111.08 484.413 113.16C484.413 115.213 483.919 117.013 482.933 118.56C481.946 120.08 480.533 121.253 478.693 122.08C476.879 122.88 474.733 123.28 472.253 123.28H466.613V131H460.133V103H472.253ZM471.893 118C473.839 118 475.319 117.587 476.333 116.76C477.346 115.907 477.853 114.707 477.853 113.16C477.853 111.587 477.346 110.387 476.333 109.56C475.319 108.707 473.839 108.28 471.893 108.28H466.613V118H471.893ZM506.073 125H493.073L490.593 131H483.952L496.433 103H502.833L515.353 131H508.553L506.073 125ZM504.033 120.08L499.593 109.36L495.153 120.08H504.033ZM536.098 131L530.698 123.2H530.378H524.738V131H518.258V103H530.378C532.858 103 535.004 103.413 536.818 104.24C538.658 105.067 540.071 106.24 541.058 107.76C542.044 109.28 542.538 111.08 542.538 113.16C542.538 115.24 542.031 117.04 541.018 118.56C540.031 120.053 538.618 121.2 536.778 122L543.058 131H536.098ZM535.978 113.16C535.978 111.587 535.471 110.387 534.458 109.56C533.444 108.707 531.964 108.28 530.018 108.28H524.738V118.04H530.018C531.964 118.04 533.444 117.613 534.458 116.76C535.471 115.907 535.978 114.707 535.978 113.16ZM553.081 108.28H544.121V103H568.521V108.28H559.561V131H553.081V108.28ZM584.94 121.08V131H578.46V121L567.62 103H574.5L581.98 115.44L589.46 103H595.82L584.94 121.08Z" fill="black"/>
<path d="M157.416 904.832V911.48H153.816V908H141.96V911.48H138.36L138.384 904.832H139.056C140.064 904.8 140.776 904.064 141.192 902.624C141.608 901.184 141.864 899.128 141.96 896.456L142.152 891.2H155.064V904.832H157.416ZM145.392 896.816C145.312 898.816 145.144 900.496 144.888 901.856C144.632 903.2 144.24 904.192 143.712 904.832H151.224V894.368H145.464L145.392 896.816ZM172.129 895.088V908H168.385V898.16H164.305L164.185 900.44C164.121 902.136 163.961 903.544 163.705 904.664C163.449 905.784 163.033 906.664 162.457 907.304C161.881 907.944 161.081 908.264 160.057 908.264C159.513 908.264 158.865 908.168 158.113 907.976L158.305 904.904C158.561 904.936 158.745 904.952 158.857 904.952C159.417 904.952 159.833 904.752 160.105 904.352C160.393 903.936 160.585 903.416 160.681 902.792C160.777 902.152 160.849 901.312 160.897 900.272L161.089 895.088H172.129ZM187.202 895.088V908H183.866V904.304H181.106L178.658 908H174.674L177.626 903.776C176.73 903.424 176.042 902.92 175.562 902.264C175.098 901.592 174.866 900.784 174.866 899.84C174.866 898.32 175.41 897.152 176.498 896.336C177.602 895.504 179.114 895.088 181.034 895.088H187.202ZM181.106 898.136C180.306 898.136 179.698 898.28 179.282 898.568C178.882 898.856 178.682 899.32 178.682 899.96C178.682 900.6 178.874 901.072 179.258 901.376C179.658 901.664 180.258 901.808 181.058 901.808H183.866V898.136H181.106ZM207.461 901.256C208.981 901.768 209.741 902.792 209.741 904.328C209.741 905.496 209.301 906.4 208.421 907.04C207.541 907.68 206.229 908 204.485 908H197.597V895.088H204.197C205.813 895.088 207.077 895.384 207.989 895.976C208.901 896.552 209.357 897.368 209.357 898.424C209.357 899.064 209.189 899.632 208.853 900.128C208.533 900.608 208.069 900.984 207.461 901.256ZM201.029 900.392H203.861C205.173 900.392 205.829 899.928 205.829 899C205.829 898.088 205.173 897.632 203.861 897.632H201.029V900.392ZM204.173 905.456C205.549 905.456 206.237 904.984 206.237 904.04C206.237 903.544 206.077 903.184 205.757 902.96C205.437 902.72 204.933 902.6 204.245 902.6H201.029V905.456H204.173ZM217.543 894.896C219.543 894.896 221.079 895.376 222.151 896.336C223.223 897.28 223.759 898.712 223.759 900.632V908H220.255V906.392C219.551 907.592 218.239 908.192 216.319 908.192C215.327 908.192 214.463 908.024 213.727 907.688C213.007 907.352 212.455 906.888 212.071 906.296C211.687 905.704 211.495 905.032 211.495 904.28C211.495 903.08 211.943 902.136 212.839 901.448C213.751 900.76 215.151 900.416 217.039 900.416H220.015C220.015 899.6 219.767 898.976 219.271 898.544C218.775 898.096 218.031 897.872 217.039 897.872C216.351 897.872 215.671 897.984 214.999 898.208C214.343 898.416 213.783 898.704 213.319 899.072L211.975 896.456C212.679 895.96 213.519 895.576 214.495 895.304C215.487 895.032 216.503 894.896 217.543 894.896ZM217.255 905.672C217.895 905.672 218.463 905.528 218.959 905.24C219.455 904.936 219.807 904.496 220.015 903.92V902.6H217.447C215.911 902.6 215.143 903.104 215.143 904.112C215.143 904.592 215.327 904.976 215.695 905.264C216.079 905.536 216.599 905.672 217.255 905.672ZM233.155 908.192C231.779 908.192 230.539 907.912 229.435 907.352C228.347 906.776 227.491 905.984 226.867 904.976C226.259 903.968 225.955 902.824 225.955 901.544C225.955 900.264 226.259 899.12 226.867 898.112C227.491 897.104 228.347 896.32 229.435 895.76C230.539 895.184 231.779 894.896 233.155 894.896C234.515 894.896 235.699 895.184 236.707 895.76C237.731 896.32 238.475 897.128 238.939 898.184L236.035 899.744C235.363 898.56 234.395 897.968 233.131 897.968C232.155 897.968 231.347 898.288 230.707 898.928C230.067 899.568 229.747 900.44 229.747 901.544C229.747 902.648 230.067 903.52 230.707 904.16C231.347 904.8 232.155 905.12 233.131 905.12C234.411 905.12 235.379 904.528 236.035 903.344L238.939 904.928C238.475 905.952 237.731 906.752 236.707 907.328C235.699 907.904 234.515 908.192 233.155 908.192Z" fill="black"/>
<path d="M140.088 1298.2H153.648V1301.3H143.952V1304.75H148.608C150.64 1304.75 152.184 1305.18 153.24 1306.02C154.312 1306.87 154.848 1308.1 154.848 1309.7C154.848 1311.38 154.256 1312.68 153.072 1313.61C151.888 1314.54 150.216 1315 148.056 1315H140.088V1298.2ZM147.84 1312.12C148.832 1312.12 149.592 1311.93 150.12 1311.54C150.648 1311.14 150.912 1310.57 150.912 1309.82C150.912 1308.34 149.888 1307.61 147.84 1307.61H143.952V1312.12H147.84ZM169.622 1302.09V1315H165.878V1305.16H161.798L161.678 1307.44C161.614 1309.14 161.454 1310.54 161.198 1311.66C160.942 1312.78 160.526 1313.66 159.95 1314.3C159.374 1314.94 158.574 1315.26 157.55 1315.26C157.006 1315.26 156.358 1315.17 155.606 1314.98L155.798 1311.9C156.054 1311.94 156.238 1311.95 156.35 1311.95C156.91 1311.95 157.326 1311.75 157.598 1311.35C157.886 1310.94 158.078 1310.42 158.174 1309.79C158.27 1309.15 158.342 1308.31 158.39 1307.27L158.582 1302.09H169.622ZM173.222 1302.09H176.942V1309.77L183.23 1302.09H186.662V1315H182.942V1307.32L176.678 1315H173.222V1302.09ZM203.053 1310.1H201.253V1315H197.557V1310.1H195.757L193.021 1315H188.605L192.661 1308.33L188.893 1302.09H192.853L195.709 1307.1H197.557V1302.09H201.253V1307.1H203.077L205.957 1302.09H209.917L206.149 1308.33L210.229 1315H205.789L203.053 1310.1ZM216.957 1301.9C218.957 1301.9 220.493 1302.38 221.565 1303.34C222.637 1304.28 223.173 1305.71 223.173 1307.63V1315H219.669V1313.39C218.965 1314.59 217.653 1315.19 215.733 1315.19C214.741 1315.19 213.877 1315.02 213.141 1314.69C212.421 1314.35 211.869 1313.89 211.485 1313.3C211.101 1312.7 210.909 1312.03 210.909 1311.28C210.909 1310.08 211.357 1309.14 212.253 1308.45C213.165 1307.76 214.565 1307.42 216.453 1307.42H219.429C219.429 1306.6 219.181 1305.98 218.685 1305.54C218.189 1305.1 217.445 1304.87 216.453 1304.87C215.765 1304.87 215.085 1304.98 214.413 1305.21C213.757 1305.42 213.197 1305.7 212.733 1306.07L211.389 1303.46C212.093 1302.96 212.933 1302.58 213.909 1302.3C214.901 1302.03 215.917 1301.9 216.957 1301.9ZM216.669 1312.67C217.309 1312.67 217.877 1312.53 218.373 1312.24C218.869 1311.94 219.221 1311.5 219.429 1310.92V1309.6H216.861C215.325 1309.6 214.557 1310.1 214.557 1311.11C214.557 1311.59 214.741 1311.98 215.109 1312.26C215.493 1312.54 216.013 1312.67 216.669 1312.67ZM226.425 1302.09H230.145V1309.77L236.433 1302.09H239.865V1315H236.145V1307.32L229.881 1315H226.425V1302.09ZM232.905 1300.7C230.089 1300.7 228.673 1299.46 228.657 1296.98H231.105C231.121 1297.54 231.273 1297.98 231.561 1298.3C231.865 1298.6 232.305 1298.75 232.881 1298.75C233.457 1298.75 233.897 1298.6 234.201 1298.3C234.521 1297.98 234.681 1297.54 234.681 1296.98H237.177C237.161 1299.46 235.737 1300.7 232.905 1300.7ZM263.168 1302.09V1315H243.464V1302.09H247.184V1311.93H251.48V1302.09H255.2V1311.93H259.448V1302.09H263.168ZM266.761 1302.09H270.481V1309.77L276.769 1302.09H280.201V1315H276.481V1307.32L270.217 1315H266.761V1302.09ZM296.352 1308.59C296.352 1308.64 296.328 1308.98 296.28 1309.6H286.512C286.688 1310.4 287.104 1311.03 287.76 1311.5C288.416 1311.96 289.232 1312.19 290.208 1312.19C290.88 1312.19 291.472 1312.1 291.984 1311.9C292.512 1311.7 293 1311.38 293.448 1310.94L295.44 1313.1C294.224 1314.5 292.448 1315.19 290.112 1315.19C288.656 1315.19 287.368 1314.91 286.248 1314.35C285.128 1313.78 284.264 1312.98 283.656 1311.98C283.048 1310.97 282.744 1309.82 282.744 1308.54C282.744 1307.28 283.04 1306.14 283.632 1305.14C284.24 1304.11 285.064 1303.32 286.104 1302.76C287.16 1302.18 288.336 1301.9 289.632 1301.9C290.896 1301.9 292.04 1302.17 293.064 1302.71C294.088 1303.26 294.888 1304.04 295.464 1305.06C296.056 1306.07 296.352 1307.25 296.352 1308.59ZM289.656 1304.73C288.808 1304.73 288.096 1304.97 287.52 1305.45C286.944 1305.93 286.592 1306.58 286.464 1307.42H292.824C292.696 1306.6 292.344 1305.95 291.768 1305.47C291.192 1304.98 290.488 1304.73 289.656 1304.73ZM312.163 1315.19C310.787 1315.19 309.547 1314.91 308.443 1314.35C307.355 1313.78 306.499 1312.98 305.875 1311.98C305.267 1310.97 304.963 1309.82 304.963 1308.54C304.963 1307.26 305.267 1306.12 305.875 1305.11C306.499 1304.1 307.355 1303.32 308.443 1302.76C309.547 1302.18 310.787 1301.9 312.163 1301.9C313.523 1301.9 314.707 1302.18 315.715 1302.76C316.739 1303.32 317.483 1304.13 317.947 1305.18L315.043 1306.74C314.371 1305.56 313.403 1304.97 312.139 1304.97C311.163 1304.97 310.355 1305.29 309.715 1305.93C309.075 1306.57 308.755 1307.44 308.755 1308.54C308.755 1309.65 309.075 1310.52 309.715 1311.16C310.355 1311.8 311.163 1312.12 312.139 1312.12C313.419 1312.12 314.387 1311.53 315.043 1310.34L317.947 1311.93C317.483 1312.95 316.739 1313.75 315.715 1314.33C314.707 1314.9 313.523 1315.19 312.163 1315.19ZM326.106 1315.19C324.746 1315.19 323.522 1314.91 322.434 1314.35C321.362 1313.78 320.522 1312.98 319.914 1311.98C319.306 1310.97 319.002 1309.82 319.002 1308.54C319.002 1307.26 319.306 1306.12 319.914 1305.11C320.522 1304.1 321.362 1303.32 322.434 1302.76C323.522 1302.18 324.746 1301.9 326.106 1301.9C327.466 1301.9 328.682 1302.18 329.754 1302.76C330.826 1303.32 331.666 1304.1 332.274 1305.11C332.882 1306.12 333.186 1307.26 333.186 1308.54C333.186 1309.82 332.882 1310.97 332.274 1311.98C331.666 1312.98 330.826 1313.78 329.754 1314.35C328.682 1314.91 327.466 1315.19 326.106 1315.19ZM326.106 1312.12C327.066 1312.12 327.85 1311.8 328.458 1311.16C329.082 1310.5 329.394 1309.63 329.394 1308.54C329.394 1307.46 329.082 1306.59 328.458 1305.95C327.85 1305.3 327.066 1304.97 326.106 1304.97C325.146 1304.97 324.354 1305.3 323.73 1305.95C323.106 1306.59 322.794 1307.46 322.794 1308.54C322.794 1309.63 323.106 1310.5 323.73 1311.16C324.354 1311.8 325.146 1312.12 326.106 1312.12ZM343.225 1302.98C344.457 1302.98 345.537 1303.23 346.465 1303.74C347.393 1304.24 348.105 1304.94 348.601 1305.86C349.113 1306.77 349.369 1307.82 349.369 1309.02C349.369 1310.26 349.065 1311.35 348.457 1312.31C347.865 1313.26 347.033 1313.99 345.961 1314.52C344.889 1315.03 343.673 1315.29 342.313 1315.29C340.057 1315.29 338.281 1314.57 336.985 1313.13C335.705 1311.67 335.065 1309.54 335.065 1306.74C335.065 1304.15 335.625 1302.09 336.745 1300.55C337.881 1299 339.617 1297.98 341.953 1297.5L348.097 1296.28L348.601 1299.5L343.177 1300.58C341.705 1300.86 340.609 1301.34 339.889 1302.02C339.185 1302.69 338.769 1303.64 338.641 1304.87C339.201 1304.26 339.873 1303.8 340.657 1303.48C341.441 1303.14 342.297 1302.98 343.225 1302.98ZM342.337 1312.38C343.297 1312.38 344.065 1312.07 344.641 1311.45C345.233 1310.82 345.529 1310.03 345.529 1309.07C345.529 1308.1 345.233 1307.32 344.641 1306.74C344.065 1306.17 343.297 1305.88 342.337 1305.88C341.361 1305.88 340.577 1306.17 339.985 1306.74C339.393 1307.32 339.097 1308.1 339.097 1309.07C339.097 1310.05 339.401 1310.85 340.009 1311.47C340.617 1312.08 341.393 1312.38 342.337 1312.38ZM358.701 1306.22C360.381 1306.23 361.653 1306.61 362.517 1307.34C363.381 1308.08 363.813 1309.14 363.813 1310.51C363.813 1311.95 363.325 1313.06 362.349 1313.85C361.373 1314.63 359.989 1315.02 358.197 1315.02L351.909 1315V1302.09H355.629V1306.22H358.701ZM365.205 1302.09H368.925V1315H365.205V1302.09ZM357.861 1312.36C358.581 1312.38 359.133 1312.22 359.517 1311.9C359.901 1311.58 360.093 1311.1 360.093 1310.46C360.093 1309.84 359.901 1309.38 359.517 1309.1C359.149 1308.81 358.597 1308.66 357.861 1308.64L355.629 1308.62V1312.36H357.861ZM383.382 1305.16H379.014V1315H375.294V1305.16H370.926V1302.09H383.382V1305.16ZM385.378 1302.09H389.098V1309.77L395.386 1302.09H398.818V1315H395.098V1307.32L388.834 1315H385.378V1302.09ZM413.889 1302.09V1315H410.553V1311.3H407.793L405.345 1315H401.361L404.313 1310.78C403.417 1310.42 402.729 1309.92 402.249 1309.26C401.785 1308.59 401.553 1307.78 401.553 1306.84C401.553 1305.32 402.097 1304.15 403.185 1303.34C404.289 1302.5 405.801 1302.09 407.721 1302.09H413.889ZM407.793 1305.14C406.993 1305.14 406.385 1305.28 405.969 1305.57C405.569 1305.86 405.369 1306.32 405.369 1306.96C405.369 1307.6 405.561 1308.07 405.945 1308.38C406.345 1308.66 406.945 1308.81 407.745 1308.81H410.553V1305.14H407.793Z" fill="black"/>
<path d="M199.4 1715.2V1732H195.536V1718.37H187.952V1732H184.088V1715.2H199.4ZM209.325 1732.19C207.965 1732.19 206.741 1731.91 205.653 1731.35C204.581 1730.78 203.741 1729.98 203.133 1728.98C202.525 1727.97 202.221 1726.82 202.221 1725.54C202.221 1724.26 202.525 1723.12 203.133 1722.11C203.741 1721.1 204.581 1720.32 205.653 1719.76C206.741 1719.18 207.965 1718.9 209.325 1718.9C210.685 1718.9 211.901 1719.18 212.973 1719.76C214.045 1720.32 214.885 1721.1 215.493 1722.11C216.101 1723.12 216.405 1724.26 216.405 1725.54C216.405 1726.82 216.101 1727.97 215.493 1728.98C214.885 1729.98 214.045 1730.78 212.973 1731.35C211.901 1731.91 210.685 1732.19 209.325 1732.19ZM209.325 1729.12C210.285 1729.12 211.069 1728.8 211.677 1728.16C212.301 1727.5 212.613 1726.63 212.613 1725.54C212.613 1724.46 212.301 1723.59 211.677 1722.95C211.069 1722.3 210.285 1721.97 209.325 1721.97C208.365 1721.97 207.573 1722.3 206.949 1722.95C206.325 1723.59 206.013 1724.46 206.013 1725.54C206.013 1726.63 206.325 1727.5 206.949 1728.16C207.573 1728.8 208.365 1729.12 209.325 1729.12ZM233.264 1728.93V1734.78H229.784V1732H220.712V1734.78H217.232V1728.93H217.76C218.56 1728.91 219.112 1728.44 219.416 1727.51C219.72 1726.58 219.912 1725.26 219.992 1723.55L220.16 1719.09H231.416V1728.93H233.264ZM223.376 1723.82C223.328 1725.13 223.224 1726.2 223.064 1727.03C222.92 1727.86 222.64 1728.5 222.224 1728.93H227.672V1722.16H223.448L223.376 1723.82ZM243.084 1719.98C244.316 1719.98 245.396 1720.23 246.324 1720.74C247.252 1721.24 247.964 1721.94 248.46 1722.86C248.972 1723.77 249.228 1724.82 249.228 1726.02C249.228 1727.26 248.924 1728.35 248.316 1729.31C247.724 1730.26 246.892 1730.99 245.82 1731.52C244.748 1732.03 243.532 1732.29 242.172 1732.29C239.916 1732.29 238.14 1731.57 236.844 1730.13C235.564 1728.67 234.924 1726.54 234.924 1723.74C234.924 1721.15 235.484 1719.09 236.604 1717.55C237.74 1716 239.476 1714.98 241.812 1714.5L247.956 1713.28L248.46 1716.5L243.036 1717.58C241.564 1717.86 240.468 1718.34 239.748 1719.02C239.044 1719.69 238.628 1720.64 238.5 1721.87C239.06 1721.26 239.732 1720.8 240.516 1720.48C241.3 1720.14 242.156 1719.98 243.084 1719.98ZM242.196 1729.38C243.156 1729.38 243.924 1729.07 244.5 1728.45C245.092 1727.82 245.388 1727.03 245.388 1726.07C245.388 1725.1 245.092 1724.32 244.5 1723.74C243.924 1723.17 243.156 1722.88 242.196 1722.88C241.22 1722.88 240.436 1723.17 239.844 1723.74C239.252 1724.32 238.956 1725.1 238.956 1726.07C238.956 1727.05 239.26 1727.85 239.868 1728.47C240.476 1729.08 241.252 1729.38 242.196 1729.38ZM257.817 1732.19C256.457 1732.19 255.233 1731.91 254.145 1731.35C253.073 1730.78 252.233 1729.98 251.625 1728.98C251.017 1727.97 250.713 1726.82 250.713 1725.54C250.713 1724.26 251.017 1723.12 251.625 1722.11C252.233 1721.1 253.073 1720.32 254.145 1719.76C255.233 1719.18 256.457 1718.9 257.817 1718.9C259.177 1718.9 260.393 1719.18 261.465 1719.76C262.537 1720.32 263.377 1721.1 263.985 1722.11C264.593 1723.12 264.897 1724.26 264.897 1725.54C264.897 1726.82 264.593 1727.97 263.985 1728.98C263.377 1729.98 262.537 1730.78 261.465 1731.35C260.393 1731.91 259.177 1732.19 257.817 1732.19ZM257.817 1729.12C258.777 1729.12 259.561 1728.8 260.169 1728.16C260.793 1727.5 261.105 1726.63 261.105 1725.54C261.105 1724.46 260.793 1723.59 260.169 1722.95C259.561 1722.3 258.777 1721.97 257.817 1721.97C256.857 1721.97 256.065 1722.3 255.441 1722.95C254.817 1723.59 254.505 1724.46 254.505 1725.54C254.505 1726.63 254.817 1727.5 255.441 1728.16C256.065 1728.8 256.857 1729.12 257.817 1729.12ZM275.08 1718.9C276.28 1718.9 277.368 1719.18 278.344 1719.74C279.336 1720.28 280.112 1721.06 280.672 1722.06C281.232 1723.06 281.512 1724.22 281.512 1725.54C281.512 1726.87 281.232 1728.04 280.672 1729.05C280.112 1730.04 279.336 1730.82 278.344 1731.38C277.368 1731.92 276.28 1732.19 275.08 1732.19C273.432 1732.19 272.136 1731.67 271.192 1730.63V1736.66H267.448V1719.09H271.024V1720.58C271.952 1719.46 273.304 1718.9 275.08 1718.9ZM274.432 1729.12C275.392 1729.12 276.176 1728.8 276.784 1728.16C277.408 1727.5 277.72 1726.63 277.72 1725.54C277.72 1724.46 277.408 1723.59 276.784 1722.95C276.176 1722.3 275.392 1721.97 274.432 1721.97C273.472 1721.97 272.68 1722.3 272.056 1722.95C271.448 1723.59 271.144 1724.46 271.144 1725.54C271.144 1726.63 271.448 1727.5 272.056 1728.16C272.68 1728.8 273.472 1729.12 274.432 1729.12ZM289.824 1727.1H287.88V1732H284.136V1719.09H287.88V1724.1H289.896L293.4 1719.09H297.384L292.872 1725.28L297.696 1732H293.28L289.824 1727.1ZM299.534 1719.09H303.254V1726.77L309.542 1719.09H312.974V1732H309.254V1724.32L302.99 1732H299.534V1719.09Z" fill="black"/>
<g filter="url(#filter1_d)">
<rect x="108" y="940" width="403" height="325" rx="20" fill="#C4C4C4"/>
<rect x="109" y="941" width="401" height="323" rx="19" stroke="black" stroke-width="2"/>
</g>
<g filter="url(#filter2_d)">
<rect x="109" y="1347" width="403" height="325" rx="20" fill="#C4C4C4"/>
<rect x="110" y="1348" width="401" height="323" rx="19" stroke="black" stroke-width="2"/>
</g>
<g filter="url(#filter3_d)">
<rect x="109" y="1759" width="403" height="325" rx="20" fill="#C4C4C4"/>
<rect x="110" y="1760" width="401" height="323" rx="19" stroke="black" stroke-width="2"/>
</g>
<g filter="url(#filter4_d)">
<rect x="556" y="1759" width="403" height="325" rx="20" fill="#C4C4C4"/>
<rect x="557" y="1760" width="401" height="323" rx="19" stroke="black" stroke-width="2"/>
</g>
<g filter="url(#filter5_d)">
<rect x="1003" y="1759" width="403" height="325" rx="20" fill="#C4C4C4"/>
<rect x="1004" y="1760" width="401" height="323" rx="19" stroke="black" stroke-width="2"/>
</g>
<g filter="url(#filter6_d)">
<rect x="556" y="1347" width="403" height="325" rx="20" fill="#C4C4C4"/>
<rect x="557" y="1348" width="401" height="323" rx="19" stroke="black" stroke-width="2"/>
</g>
<g filter="url(#filter7_d)">
<rect x="1004" y="1347" width="403" height="325" rx="20" fill="#C4C4C4"/>
<rect x="1005" y="1348" width="401" height="323" rx="19" stroke="black" stroke-width="2"/>
</g>
<g filter="url(#filter8_d)">
<rect x="555" y="940" width="403" height="325" rx="20" fill="#C4C4C4"/>
<rect x="556" y="941" width="401" height="323" rx="19" stroke="black" stroke-width="2"/>
</g>
<g filter="url(#filter9_d)">
<rect x="1004" y="940" width="403" height="325" rx="20" fill="#C4C4C4"/>
<rect x="1005" y="941" width="401" height="323" rx="19" stroke="black" stroke-width="2"/>
</g>
<rect y="2171" width="1440" height="587" fill="#EAEAEA"/>
<path d="M147.472 220.608H143.968V228H141.616V211.2H143.968V218.496H147.52L152.8 211.2H155.368L149.368 219.336L155.656 228H152.92L147.472 220.608ZM163.016 228.144C161.752 228.144 160.616 227.864 159.608 227.304C158.6 226.744 157.808 225.976 157.232 225C156.672 224.008 156.392 222.888 156.392 221.64C156.392 220.392 156.672 219.28 157.232 218.304C157.808 217.312 158.6 216.544 159.608 216C160.616 215.44 161.752 215.16 163.016 215.16C164.28 215.16 165.408 215.44 166.4 216C167.408 216.544 168.192 217.312 168.752 218.304C169.328 219.28 169.616 220.392 169.616 221.64C169.616 222.888 169.328 224.008 168.752 225C168.192 225.976 167.408 226.744 166.4 227.304C165.408 227.864 164.28 228.144 163.016 228.144ZM163.016 226.128C163.832 226.128 164.56 225.944 165.2 225.576C165.856 225.192 166.368 224.664 166.736 223.992C167.104 223.304 167.288 222.52 167.288 221.64C167.288 220.76 167.104 219.984 166.736 219.312C166.368 218.624 165.856 218.096 165.2 217.728C164.56 217.36 163.832 217.176 163.016 217.176C162.2 217.176 161.464 217.36 160.808 217.728C160.168 218.096 159.656 218.624 159.272 219.312C158.904 219.984 158.72 220.76 158.72 221.64C158.72 222.52 158.904 223.304 159.272 223.992C159.656 224.664 160.168 225.192 160.808 225.576C161.464 225.944 162.2 226.128 163.016 226.128ZM172.943 215.28H175.247V220.68H182.495V215.28H184.799V228H182.495V222.672H175.247V228H172.943V215.28ZM202.863 225.984V231.048H200.679V228H189.279V215.28H191.583V225.984H198.543V215.28H200.847V225.984H202.863ZM217.345 221.712C217.345 221.888 217.329 222.12 217.297 222.408H206.977C207.121 223.528 207.609 224.432 208.441 225.12C209.289 225.792 210.337 226.128 211.585 226.128C213.105 226.128 214.329 225.616 215.257 224.592L216.529 226.08C215.953 226.752 215.233 227.264 214.369 227.616C213.521 227.968 212.569 228.144 211.513 228.144C210.169 228.144 208.977 227.872 207.937 227.328C206.897 226.768 206.089 225.992 205.513 225C204.953 224.008 204.673 222.888 204.673 221.64C204.673 220.408 204.945 219.296 205.489 218.304C206.049 217.312 206.809 216.544 207.769 216C208.745 215.44 209.841 215.16 211.057 215.16C212.273 215.16 213.353 215.44 214.297 216C215.257 216.544 216.001 217.312 216.529 218.304C217.073 219.296 217.345 220.432 217.345 221.712ZM211.057 217.104C209.953 217.104 209.025 217.44 208.273 218.112C207.537 218.784 207.105 219.664 206.977 220.752H215.137C215.009 219.68 214.569 218.808 213.817 218.136C213.081 217.448 212.161 217.104 211.057 217.104ZM227.664 215.16C228.896 215.16 230 215.432 230.976 215.976C231.952 216.52 232.712 217.28 233.256 218.256C233.816 219.232 234.096 220.36 234.096 221.64C234.096 222.92 233.816 224.056 233.256 225.048C232.712 226.024 231.952 226.784 230.976 227.328C230 227.872 228.896 228.144 227.664 228.144C226.752 228.144 225.912 227.968 225.144 227.616C224.392 227.264 223.752 226.752 223.224 226.08V232.656H220.92V215.28H223.128V217.296C223.64 216.592 224.288 216.064 225.072 215.712C225.856 215.344 226.72 215.16 227.664 215.16ZM227.472 226.128C228.288 226.128 229.016 225.944 229.656 225.576C230.312 225.192 230.824 224.664 231.192 223.992C231.576 223.304 231.768 222.52 231.768 221.64C231.768 220.76 231.576 219.984 231.192 219.312C230.824 218.624 230.312 218.096 229.656 217.728C229.016 217.36 228.288 217.176 227.472 217.176C226.672 217.176 225.944 217.368 225.288 217.752C224.648 218.12 224.136 218.64 223.752 219.312C223.384 219.984 223.2 220.76 223.2 221.64C223.2 222.52 223.384 223.304 223.752 223.992C224.12 224.664 224.632 225.192 225.288 225.576C225.944 225.944 226.672 226.128 227.472 226.128ZM246.454 217.296H241.798V228H239.494V217.296H234.838V215.28H246.454V217.296ZM254.546 219.6C256.146 219.616 257.37 219.984 258.218 220.704C259.066 221.424 259.49 222.44 259.49 223.752C259.49 225.128 259.026 226.192 258.098 226.944C257.186 227.68 255.874 228.04 254.162 228.024L248.81 228V215.28H251.114V219.576L254.546 219.6ZM261.386 215.28H263.69V228H261.386V215.28ZM253.994 226.272C255.034 226.288 255.818 226.08 256.346 225.648C256.89 225.216 257.162 224.576 257.162 223.728C257.162 222.896 256.898 222.288 256.37 221.904C255.842 221.52 255.05 221.32 253.994 221.304L251.114 221.256V226.248L253.994 226.272Z" fill="black"/>
<path d="M304.344 211.2V228H301.992V213.288H294.552L294.384 218.208C294.304 220.528 294.112 222.408 293.808 223.848C293.52 225.288 293.056 226.376 292.416 227.112C291.776 227.832 290.912 228.192 289.824 228.192C289.328 228.192 288.824 228.128 288.312 228L288.48 225.864C288.736 225.928 288.992 225.96 289.248 225.96C289.936 225.96 290.488 225.688 290.904 225.144C291.32 224.584 291.632 223.752 291.84 222.648C292.048 221.544 292.184 220.088 292.248 218.28L292.512 211.2H304.344ZM320.689 221.712C320.689 221.888 320.673 222.12 320.641 222.408H310.321C310.465 223.528 310.953 224.432 311.785 225.12C312.633 225.792 313.681 226.128 314.929 226.128C316.449 226.128 317.673 225.616 318.601 224.592L319.873 226.08C319.297 226.752 318.577 227.264 317.713 227.616C316.865 227.968 315.913 228.144 314.857 228.144C313.513 228.144 312.321 227.872 311.281 227.328C310.241 226.768 309.433 225.992 308.857 225C308.297 224.008 308.017 222.888 308.017 221.64C308.017 220.408 308.289 219.296 308.833 218.304C309.393 217.312 310.153 216.544 311.113 216C312.089 215.44 313.185 215.16 314.401 215.16C315.617 215.16 316.697 215.44 317.641 216C318.601 216.544 319.345 217.312 319.873 218.304C320.417 219.296 320.689 220.432 320.689 221.712ZM314.401 217.104C313.297 217.104 312.369 217.44 311.617 218.112C310.881 218.784 310.449 219.664 310.321 220.752H318.481C318.353 219.68 317.913 218.808 317.161 218.136C316.425 217.448 315.505 217.104 314.401 217.104ZM329.207 222.624H326.567V228H324.263V215.28H326.567V220.656H329.255L333.383 215.28H335.855L331.031 221.4L336.191 228H333.479L329.207 222.624ZM352.191 225.984V231.048H350.007V228H338.607V215.28H340.911V225.984H347.871V215.28H350.175V225.984H352.191ZM355.177 215.28H357.481V224.544L365.281 215.28H367.369V228H365.065V218.736L357.289 228H355.177V215.28ZM371.841 215.28H374.145V224.544L381.945 215.28H384.033V228H381.729V218.736L373.953 228H371.841V215.28ZM394.951 215.28H397.255V224.544L405.055 215.28H407.143V228H404.839V218.736L397.063 228H394.951V215.28ZM432.724 215.28V228H430.636V218.712L425.884 226.56H424.876L420.172 218.688V228H418.06V215.28H420.436L425.428 223.872L430.564 215.28H432.724ZM441.745 215.16C443.505 215.16 444.849 215.592 445.777 216.456C446.721 217.32 447.193 218.608 447.193 220.32V228H445.009V226.32C444.625 226.912 444.073 227.368 443.353 227.688C442.649 227.992 441.809 228.144 440.833 228.144C439.409 228.144 438.265 227.8 437.401 227.112C436.553 226.424 436.129 225.52 436.129 224.4C436.129 223.28 436.537 222.384 437.353 221.712C438.169 221.024 439.465 220.68 441.241 220.68H444.889V220.224C444.889 219.232 444.601 218.472 444.025 217.944C443.449 217.416 442.601 217.152 441.481 217.152C440.729 217.152 439.993 217.28 439.273 217.536C438.553 217.776 437.945 218.104 437.449 218.52L436.489 216.792C437.145 216.264 437.929 215.864 438.841 215.592C439.753 215.304 440.721 215.16 441.745 215.16ZM441.217 226.368C442.097 226.368 442.857 226.176 443.497 225.792C444.137 225.392 444.601 224.832 444.889 224.112V222.336H441.337C439.385 222.336 438.409 222.992 438.409 224.304C438.409 224.944 438.657 225.448 439.153 225.816C439.649 226.184 440.337 226.368 441.217 226.368ZM456.885 228.144C455.589 228.144 454.429 227.864 453.405 227.304C452.397 226.744 451.605 225.976 451.029 225C450.453 224.008 450.165 222.888 450.165 221.64C450.165 220.392 450.453 219.28 451.029 218.304C451.605 217.312 452.397 216.544 453.405 216C454.429 215.44 455.589 215.16 456.885 215.16C458.037 215.16 459.061 215.392 459.957 215.856C460.869 216.32 461.573 216.992 462.069 217.872L460.317 219C459.917 218.392 459.421 217.936 458.829 217.632C458.237 217.328 457.581 217.176 456.861 217.176C456.029 217.176 455.277 217.36 454.605 217.728C453.949 218.096 453.429 218.624 453.045 219.312C452.677 219.984 452.493 220.76 452.493 221.64C452.493 222.536 452.677 223.328 453.045 224.016C453.429 224.688 453.949 225.208 454.605 225.576C455.277 225.944 456.029 226.128 456.861 226.128C457.581 226.128 458.237 225.976 458.829 225.672C459.421 225.368 459.917 224.912 460.317 224.304L462.069 225.408C461.573 226.288 460.869 226.968 459.957 227.448C459.061 227.912 458.037 228.144 456.885 228.144ZM474.368 217.296H469.712V228H467.408V217.296H462.752V215.28H474.368V217.296ZM487.658 221.712C487.658 221.888 487.642 222.12 487.61 222.408H477.29C477.434 223.528 477.922 224.432 478.754 225.12C479.602 225.792 480.65 226.128 481.898 226.128C483.418 226.128 484.642 225.616 485.57 224.592L486.842 226.08C486.266 226.752 485.546 227.264 484.682 227.616C483.834 227.968 482.882 228.144 481.826 228.144C480.482 228.144 479.29 227.872 478.25 227.328C477.21 226.768 476.402 225.992 475.826 225C475.266 224.008 474.986 222.888 474.986 221.64C474.986 220.408 475.258 219.296 475.802 218.304C476.362 217.312 477.122 216.544 478.082 216C479.058 215.44 480.154 215.16 481.37 215.16C482.586 215.16 483.666 215.44 484.61 216C485.57 216.544 486.314 217.312 486.842 218.304C487.386 219.296 487.658 220.432 487.658 221.712ZM481.37 217.104C480.266 217.104 479.338 217.44 478.586 218.112C477.85 218.784 477.418 219.664 477.29 220.752H485.45C485.322 219.68 484.882 218.808 484.13 218.136C483.394 217.448 482.474 217.104 481.37 217.104ZM497.976 215.16C499.208 215.16 500.312 215.432 501.288 215.976C502.264 216.52 503.024 217.28 503.568 218.256C504.128 219.232 504.408 220.36 504.408 221.64C504.408 222.92 504.128 224.056 503.568 225.048C503.024 226.024 502.264 226.784 501.288 227.328C500.312 227.872 499.208 228.144 497.976 228.144C497.064 228.144 496.224 227.968 495.456 227.616C494.704 227.264 494.064 226.752 493.536 226.08V232.656H491.232V215.28H493.44V217.296C493.952 216.592 494.6 216.064 495.384 215.712C496.168 215.344 497.032 215.16 497.976 215.16ZM497.784 226.128C498.6 226.128 499.328 225.944 499.968 225.576C500.624 225.192 501.136 224.664 501.504 223.992C501.888 223.304 502.08 222.52 502.08 221.64C502.08 220.76 501.888 219.984 501.504 219.312C501.136 218.624 500.624 218.096 499.968 217.728C499.328 217.36 498.6 217.176 497.784 217.176C496.984 217.176 496.256 217.368 495.6 217.752C494.96 218.12 494.448 218.64 494.064 219.312C493.696 219.984 493.512 220.76 493.512 221.64C493.512 222.52 493.696 223.304 494.064 223.992C494.432 224.664 494.944 225.192 495.6 225.576C496.256 225.944 496.984 226.128 497.784 226.128ZM507.126 220.416H513.582V222.408H507.126V220.416ZM522.121 222.624H519.481V228H517.177V215.28H519.481V220.656H522.169L526.297 215.28H528.769L523.945 221.4L529.105 228H526.393L522.121 222.624ZM542.441 215.28V228H540.137V217.296H534.665L534.521 220.128C534.441 221.84 534.289 223.272 534.065 224.424C533.841 225.56 533.473 226.472 532.961 227.16C532.449 227.848 531.737 228.192 530.825 228.192C530.409 228.192 529.937 228.12 529.409 227.976L529.553 226.032C529.761 226.08 529.953 226.104 530.129 226.104C530.769 226.104 531.249 225.824 531.569 225.264C531.889 224.704 532.097 224.04 532.193 223.272C532.289 222.504 532.377 221.408 532.457 219.984L532.673 215.28H542.441ZM551.432 215.16C553.192 215.16 554.536 215.592 555.464 216.456C556.408 217.32 556.88 218.608 556.88 220.32V228H554.696V226.32C554.312 226.912 553.76 227.368 553.04 227.688C552.336 227.992 551.496 228.144 550.52 228.144C549.096 228.144 547.952 227.8 547.088 227.112C546.24 226.424 545.816 225.52 545.816 224.4C545.816 223.28 546.224 222.384 547.04 221.712C547.856 221.024 549.152 220.68 550.928 220.68H554.576V220.224C554.576 219.232 554.288 218.472 553.712 217.944C553.136 217.416 552.288 217.152 551.168 217.152C550.416 217.152 549.68 217.28 548.96 217.536C548.24 217.776 547.632 218.104 547.136 218.52L546.176 216.792C546.832 216.264 547.616 215.864 548.528 215.592C549.44 215.304 550.408 215.16 551.432 215.16ZM550.904 226.368C551.784 226.368 552.544 226.176 553.184 225.792C553.824 225.392 554.288 224.832 554.576 224.112V222.336H551.024C549.072 222.336 548.096 222.992 548.096 224.304C548.096 224.944 548.344 225.448 548.84 225.816C549.336 226.184 550.024 226.368 550.904 226.368ZM566.573 228.144C565.277 228.144 564.117 227.864 563.093 227.304C562.085 226.744 561.293 225.976 560.717 225C560.141 224.008 559.853 222.888 559.853 221.64C559.853 220.392 560.141 219.28 560.717 218.304C561.293 217.312 562.085 216.544 563.093 216C564.117 215.44 565.277 215.16 566.573 215.16C567.725 215.16 568.749 215.392 569.645 215.856C570.557 216.32 571.261 216.992 571.757 217.872L570.005 219C569.605 218.392 569.109 217.936 568.517 217.632C567.925 217.328 567.269 217.176 566.549 217.176C565.717 217.176 564.965 217.36 564.293 217.728C563.637 218.096 563.117 218.624 562.733 219.312C562.365 219.984 562.181 220.76 562.181 221.64C562.181 222.536 562.365 223.328 562.733 224.016C563.117 224.688 563.637 225.208 564.293 225.576C564.965 225.944 565.717 226.128 566.549 226.128C567.269 226.128 567.925 225.976 568.517 225.672C569.109 225.368 569.605 224.912 570.005 224.304L571.757 225.408C571.261 226.288 570.557 226.968 569.645 227.448C568.749 227.912 567.725 228.144 566.573 228.144ZM580.096 228.144C578.8 228.144 577.64 227.864 576.616 227.304C575.608 226.744 574.816 225.976 574.24 225C573.664 224.008 573.376 222.888 573.376 221.64C573.376 220.392 573.664 219.28 574.24 218.304C574.816 217.312 575.608 216.544 576.616 216C577.64 215.44 578.8 215.16 580.096 215.16C581.248 215.16 582.272 215.392 583.168 215.856C584.08 216.32 584.784 216.992 585.28 217.872L583.528 219C583.128 218.392 582.632 217.936 582.04 217.632C581.448 217.328 580.792 217.176 580.072 217.176C579.24 217.176 578.488 217.36 577.816 217.728C577.16 218.096 576.64 218.624 576.256 219.312C575.888 219.984 575.704 220.76 575.704 221.64C575.704 222.536 575.888 223.328 576.256 224.016C576.64 224.688 577.16 225.208 577.816 225.576C578.488 225.944 579.24 226.128 580.072 226.128C580.792 226.128 581.448 225.976 582.04 225.672C582.632 225.368 583.128 224.912 583.528 224.304L585.28 225.408C584.784 226.288 584.08 226.968 583.168 227.448C582.272 227.912 581.248 228.144 580.096 228.144ZM593.999 219.6C595.599 219.616 596.823 219.984 597.671 220.704C598.519 221.424 598.943 222.44 598.943 223.752C598.943 225.128 598.479 226.192 597.551 226.944C596.639 227.68 595.327 228.04 593.615 228.024L588.263 228V215.28H590.567V219.576L593.999 219.6ZM600.839 215.28H603.143V228H600.839V215.28ZM593.447 226.272C594.487 226.288 595.271 226.08 595.799 225.648C596.343 225.216 596.615 224.576 596.615 223.728C596.615 222.896 596.351 222.288 595.823 221.904C595.295 221.52 594.503 221.32 593.447 221.304L590.567 221.256V226.248L593.447 226.272Z" fill="black"/>
<path d="M643.128 228.192C641.448 228.192 639.928 227.824 638.568 227.088C637.224 226.336 636.168 225.312 635.4 224.016C634.632 222.704 634.248 221.232 634.248 219.6C634.248 217.968 634.632 216.504 635.4 215.208C636.168 213.896 637.232 212.872 638.592 212.136C639.952 211.384 641.472 211.008 643.152 211.008C644.464 211.008 645.664 211.232 646.752 211.68C647.84 212.112 648.768 212.76 649.536 213.624L647.976 215.136C646.712 213.808 645.136 213.144 643.248 213.144C642 213.144 640.872 213.424 639.864 213.984C638.856 214.544 638.064 215.32 637.488 216.312C636.928 217.288 636.648 218.384 636.648 219.6C636.648 220.816 636.928 221.92 637.488 222.912C638.064 223.888 638.856 224.656 639.864 225.216C640.872 225.776 642 226.056 643.248 226.056C645.12 226.056 646.696 225.384 647.976 224.04L649.536 225.552C648.768 226.416 647.832 227.072 646.728 227.52C645.64 227.968 644.44 228.192 643.128 228.192ZM664.243 215.28V228H661.939V217.296H654.763V228H652.459V215.28H664.243ZM674.149 228.144C672.885 228.144 671.749 227.864 670.741 227.304C669.733 226.744 668.941 225.976 668.365 225C667.805 224.008 667.525 222.888 667.525 221.64C667.525 220.392 667.805 219.28 668.365 218.304C668.941 217.312 669.733 216.544 670.741 216C671.749 215.44 672.885 215.16 674.149 215.16C675.413 215.16 676.541 215.44 677.533 216C678.541 216.544 679.325 217.312 679.885 218.304C680.461 219.28 680.749 220.392 680.749 221.64C680.749 222.888 680.461 224.008 679.885 225C679.325 225.976 678.541 226.744 677.533 227.304C676.541 227.864 675.413 228.144 674.149 228.144ZM674.149 226.128C674.965 226.128 675.693 225.944 676.333 225.576C676.989 225.192 677.501 224.664 677.869 223.992C678.237 223.304 678.421 222.52 678.421 221.64C678.421 220.76 678.237 219.984 677.869 219.312C677.501 218.624 676.989 218.096 676.333 217.728C675.693 217.36 674.965 217.176 674.149 217.176C673.333 217.176 672.597 217.36 671.941 217.728C671.301 218.096 670.789 218.624 670.405 219.312C670.037 219.984 669.853 220.76 669.853 221.64C669.853 222.52 670.037 223.304 670.405 223.992C670.789 224.664 671.301 225.192 671.941 225.576C672.597 225.944 673.333 226.128 674.149 226.128ZM690.82 215.16C692.052 215.16 693.156 215.432 694.132 215.976C695.108 216.52 695.868 217.28 696.412 218.256C696.972 219.232 697.252 220.36 697.252 221.64C697.252 222.92 696.972 224.056 696.412 225.048C695.868 226.024 695.108 226.784 694.132 227.328C693.156 227.872 692.052 228.144 690.82 228.144C689.908 228.144 689.068 227.968 688.3 227.616C687.548 227.264 686.908 226.752 686.38 226.08V232.656H684.076V215.28H686.284V217.296C686.796 216.592 687.444 216.064 688.228 215.712C689.012 215.344 689.876 215.16 690.82 215.16ZM690.628 226.128C691.444 226.128 692.172 225.944 692.812 225.576C693.468 225.192 693.98 224.664 694.348 223.992C694.732 223.304 694.924 222.52 694.924 221.64C694.924 220.76 694.732 219.984 694.348 219.312C693.98 218.624 693.468 218.096 692.812 217.728C692.172 217.36 691.444 217.176 690.628 217.176C689.828 217.176 689.1 217.368 688.444 217.752C687.804 218.12 687.292 218.64 686.908 219.312C686.54 219.984 686.356 220.76 686.356 221.64C686.356 222.52 686.54 223.304 686.908 223.992C687.276 224.664 687.788 225.192 688.444 225.576C689.1 225.944 689.828 226.128 690.628 226.128ZM709.61 217.296H704.954V228H702.65V217.296H697.994V215.28H709.61V217.296Z" fill="black"/>
<path d="M759.624 225.912V231.672H757.392V228H743.568L743.544 231.672H741.312L741.336 225.912H742.152C743.208 225.848 743.952 225.016 744.384 223.416C744.816 221.8 745.08 219.528 745.176 216.6L745.344 211.2H757.152V225.912H759.624ZM747.288 216.816C747.208 219.184 747.016 221.144 746.712 222.696C746.424 224.248 745.952 225.32 745.296 225.912H754.776V213.288H747.408L747.288 216.816ZM769.265 215.16C770.497 215.16 771.601 215.432 772.577 215.976C773.553 216.52 774.313 217.28 774.857 218.256C775.417 219.232 775.697 220.36 775.697 221.64C775.697 222.92 775.417 224.056 774.857 225.048C774.313 226.024 773.553 226.784 772.577 227.328C771.601 227.872 770.497 228.144 769.265 228.144C768.353 228.144 767.513 227.968 766.745 227.616C765.993 227.264 765.353 226.752 764.825 226.08V232.656H762.521V215.28H764.729V217.296C765.241 216.592 765.889 216.064 766.673 215.712C767.457 215.344 768.321 215.16 769.265 215.16ZM769.073 226.128C769.889 226.128 770.617 225.944 771.257 225.576C771.913 225.192 772.425 224.664 772.793 223.992C773.177 223.304 773.369 222.52 773.369 221.64C773.369 220.76 773.177 219.984 772.793 219.312C772.425 218.624 771.913 218.096 771.257 217.728C770.617 217.36 769.889 217.176 769.073 217.176C768.273 217.176 767.545 217.368 766.889 217.752C766.249 218.12 765.737 218.64 765.353 219.312C764.985 219.984 764.801 220.76 764.801 221.64C764.801 222.52 764.985 223.304 765.353 223.992C765.721 224.664 766.233 225.192 766.889 225.576C767.545 225.944 768.273 226.128 769.073 226.128ZM790.045 215.28L783.877 229.272C783.333 230.568 782.693 231.48 781.957 232.008C781.237 232.536 780.365 232.8 779.341 232.8C778.717 232.8 778.109 232.696 777.517 232.488C776.941 232.296 776.461 232.008 776.077 231.624L777.061 229.896C777.717 230.52 778.477 230.832 779.341 230.832C779.901 230.832 780.365 230.68 780.733 230.376C781.117 230.088 781.461 229.584 781.765 228.864L782.173 227.976L776.557 215.28H778.957L783.397 225.456L787.789 215.28H790.045ZM801.764 217.296H794.708V228H792.404V215.28H801.764V217.296ZM809.008 228.144C807.744 228.144 806.608 227.864 805.6 227.304C804.592 226.744 803.8 225.976 803.224 225C802.664 224.008 802.384 222.888 802.384 221.64C802.384 220.392 802.664 219.28 803.224 218.304C803.8 217.312 804.592 216.544 805.6 216C806.608 215.44 807.744 215.16 809.008 215.16C810.272 215.16 811.4 215.44 812.392 216C813.4 216.544 814.184 217.312 814.744 218.304C815.32 219.28 815.608 220.392 815.608 221.64C815.608 222.888 815.32 224.008 814.744 225C814.184 225.976 813.4 226.744 812.392 227.304C811.4 227.864 810.272 228.144 809.008 228.144ZM809.008 226.128C809.824 226.128 810.552 225.944 811.192 225.576C811.848 225.192 812.36 224.664 812.728 223.992C813.096 223.304 813.28 222.52 813.28 221.64C813.28 220.76 813.096 219.984 812.728 219.312C812.36 218.624 811.848 218.096 811.192 217.728C810.552 217.36 809.824 217.176 809.008 217.176C808.192 217.176 807.456 217.36 806.8 217.728C806.16 218.096 805.648 218.624 805.264 219.312C804.896 219.984 804.712 220.76 804.712 221.64C804.712 222.52 804.896 223.304 805.264 223.992C805.648 224.664 806.16 225.192 806.8 225.576C807.456 225.944 808.192 226.128 809.008 226.128ZM830.431 221.712C830.431 221.888 830.415 222.12 830.383 222.408H820.063C820.207 223.528 820.695 224.432 821.527 225.12C822.375 225.792 823.423 226.128 824.671 226.128C826.191 226.128 827.415 225.616 828.343 224.592L829.615 226.08C829.039 226.752 828.319 227.264 827.455 227.616C826.607 227.968 825.655 228.144 824.599 228.144C823.255 228.144 822.063 227.872 821.023 227.328C819.983 226.768 819.175 225.992 818.599 225C818.039 224.008 817.759 222.888 817.759 221.64C817.759 220.408 818.031 219.296 818.575 218.304C819.135 217.312 819.895 216.544 820.855 216C821.831 215.44 822.927 215.16 824.143 215.16C825.359 215.16 826.439 215.44 827.383 216C828.343 216.544 829.087 217.312 829.615 218.304C830.159 219.296 830.431 220.432 830.431 221.712ZM824.143 217.104C823.039 217.104 822.111 217.44 821.359 218.112C820.623 218.784 820.191 219.664 820.063 220.752H828.223C828.095 219.68 827.655 218.808 826.903 218.136C826.167 217.448 825.247 217.104 824.143 217.104Z" fill="black"/>
<path d="M76.9438 778.05V786H75.6388V780.195L72.6688 785.1H72.0388L69.0988 780.18V786H67.7788V778.05H69.2638L72.3838 783.42L75.5938 778.05H76.9438ZM82.5816 777.975C83.6816 777.975 84.5216 778.245 85.1016 778.785C85.6916 779.325 85.9866 780.13 85.9866 781.2V786H84.6216V784.95C84.3816 785.32 84.0366 785.605 83.5866 785.805C83.1466 785.995 82.6216 786.09 82.0116 786.09C81.1216 786.09 80.4066 785.875 79.8666 785.445C79.3366 785.015 79.0716 784.45 79.0716 783.75C79.0716 783.05 79.3266 782.49 79.8366 782.07C80.3466 781.64 81.1566 781.425 82.2666 781.425H84.5466V781.14C84.5466 780.52 84.3666 780.045 84.0066 779.715C83.6466 779.385 83.1166 779.22 82.4166 779.22C81.9466 779.22 81.4866 779.3 81.0366 779.46C80.5866 779.61 80.2066 779.815 79.8966 780.075L79.2966 778.995C79.7066 778.665 80.1966 778.415 80.7666 778.245C81.3366 778.065 81.9416 777.975 82.5816 777.975ZM82.2516 784.98C82.8016 784.98 83.2766 784.86 83.6766 784.62C84.0766 784.37 84.3666 784.02 84.5466 783.57V782.46H82.3266C81.1066 782.46 80.4966 782.87 80.4966 783.69C80.4966 784.09 80.6516 784.405 80.9616 784.635C81.2716 784.865 81.7016 784.98 82.2516 784.98ZM92.7946 777.975C93.5646 777.975 94.2546 778.145 94.8646 778.485C95.4746 778.825 95.9496 779.3 96.2896 779.91C96.6396 780.52 96.8146 781.225 96.8146 782.025C96.8146 782.825 96.6396 783.535 96.2896 784.155C95.9496 784.765 95.4746 785.24 94.8646 785.58C94.2546 785.92 93.5646 786.09 92.7946 786.09C92.2246 786.09 91.6996 785.98 91.2196 785.76C90.7496 785.54 90.3496 785.22 90.0196 784.8V788.91H88.5796V778.05H89.9596V779.31C90.2796 778.87 90.6846 778.54 91.1746 778.32C91.6646 778.09 92.2046 777.975 92.7946 777.975ZM92.6746 784.83C93.1846 784.83 93.6396 784.715 94.0396 784.485C94.4496 784.245 94.7696 783.915 94.9996 783.495C95.2396 783.065 95.3596 782.575 95.3596 782.025C95.3596 781.475 95.2396 780.99 94.9996 780.57C94.7696 780.14 94.4496 779.81 94.0396 779.58C93.6396 779.35 93.1846 779.235 92.6746 779.235C92.1746 779.235 91.7196 779.355 91.3096 779.595C90.9096 779.825 90.5896 780.15 90.3496 780.57C90.1196 780.99 90.0046 781.475 90.0046 782.025C90.0046 782.575 90.1196 783.065 90.3496 783.495C90.5796 783.915 90.8996 784.245 91.3096 784.485C91.7196 784.715 92.1746 784.83 92.6746 784.83ZM104.539 779.31H101.629V786H100.189V779.31H97.2788V778.05H104.539V779.31Z" fill="black"/>
<defs>
<filter id="filter0_d" x="61" y="294" width="1318" height="469" filterUnits="userSpaceOnUse" color-interpolation-filters="sRGB">
<feFlood flood-opacity="0" result="BackgroundImageFix"/>
<feColorMatrix in="SourceAlpha" type="matrix" values="0 0 0 0 0 0 0 0 0 0 0 0 0 0 0 0 0 0 127 0"/>
<feOffset dy="4"/>
<feGaussianBlur stdDeviation="2"/>
<feColorMatrix type="matrix" values="0 0 0 0 0 0 0 0 0 0 0 0 0 0 0 0 0 0 0.25 0"/>
<feBlend mode="normal" in2="BackgroundImageFix" result="effect1_dropShadow"/>
<feBlend mode="normal" in="SourceGraphic" in2="effect1_dropShadow" result="shape"/>
</filter>
<filter id="filter1_d" x="104" y="940" width="411" height="333" filterUnits="userSpaceOnUse" color-interpolation-filters="sRGB">
<feFlood flood-opacity="0" result="BackgroundImageFix"/>
<feColorMatrix in="SourceAlpha" type="matrix" values="0 0 0 0 0 0 0 0 0 0 0 0 0 0 0 0 0 0 127 0"/>
<feOffset dy="4"/>
<feGaussianBlur stdDeviation="2"/>
<feColorMatrix type="matrix" values="0 0 0 0 0 0 0 0 0 0 0 0 0 0 0 0 0 0 0.25 0"/>
<feBlend mode="normal" in2="BackgroundImageFix" result="effect1_dropShadow"/>
<feBlend mode="normal" in="SourceGraphic" in2="effect1_dropShadow" result="shape"/>
</filter>
<filter id="filter2_d" x="105" y="1347" width="411" height="333" filterUnits="userSpaceOnUse" color-interpolation-filters="sRGB">
<feFlood flood-opacity="0" result="BackgroundImageFix"/>
<feColorMatrix in="SourceAlpha" type="matrix" values="0 0 0 0 0 0 0 0 0 0 0 0 0 0 0 0 0 0 127 0"/>
<feOffset dy="4"/>
<feGaussianBlur stdDeviation="2"/>
<feColorMatrix type="matrix" values="0 0 0 0 0 0 0 0 0 0 0 0 0 0 0 0 0 0 0.25 0"/>
<feBlend mode="normal" in2="BackgroundImageFix" result="effect1_dropShadow"/>
<feBlend mode="normal" in="SourceGraphic" in2="effect1_dropShadow" result="shape"/>
</filter>
<filter id="filter3_d" x="105" y="1759" width="411" height="333" filterUnits="userSpaceOnUse" color-interpolation-filters="sRGB">
<feFlood flood-opacity="0" result="BackgroundImageFix"/>
<feColorMatrix in="SourceAlpha" type="matrix" values="0 0 0 0 0 0 0 0 0 0 0 0 0 0 0 0 0 0 127 0"/>
<feOffset dy="4"/>
<feGaussianBlur stdDeviation="2"/>
<feColorMatrix type="matrix" values="0 0 0 0 0 0 0 0 0 0 0 0 0 0 0 0 0 0 0.25 0"/>
<feBlend mode="normal" in2="BackgroundImageFix" result="effect1_dropShadow"/>
<feBlend mode="normal" in="SourceGraphic" in2="effect1_dropShadow" result="shape"/>
</filter>
<filter id="filter4_d" x="552" y="1759" width="411" height="333" filterUnits="userSpaceOnUse" color-interpolation-filters="sRGB">
<feFlood flood-opacity="0" result="BackgroundImageFix"/>
<feColorMatrix in="SourceAlpha" type="matrix" values="0 0 0 0 0 0 0 0 0 0 0 0 0 0 0 0 0 0 127 0"/>
<feOffset dy="4"/>
<feGaussianBlur stdDeviation="2"/>
<feColorMatrix type="matrix" values="0 0 0 0 0 0 0 0 0 0 0 0 0 0 0 0 0 0 0.25 0"/>
<feBlend mode="normal" in2="BackgroundImageFix" result="effect1_dropShadow"/>
<feBlend mode="normal" in="SourceGraphic" in2="effect1_dropShadow" result="shape"/>
</filter>
<filter id="filter5_d" x="999" y="1759" width="411" height="333" filterUnits="userSpaceOnUse" color-interpolation-filters="sRGB">
<feFlood flood-opacity="0" result="BackgroundImageFix"/>
<feColorMatrix in="SourceAlpha" type="matrix" values="0 0 0 0 0 0 0 0 0 0 0 0 0 0 0 0 0 0 127 0"/>
<feOffset dy="4"/>
<feGaussianBlur stdDeviation="2"/>
<feColorMatrix type="matrix" values="0 0 0 0 0 0 0 0 0 0 0 0 0 0 0 0 0 0 0.25 0"/>
<feBlend mode="normal" in2="BackgroundImageFix" result="effect1_dropShadow"/>
<feBlend mode="normal" in="SourceGraphic" in2="effect1_dropShadow" result="shape"/>
</filter>
<filter id="filter6_d" x="552" y="1347" width="411" height="333" filterUnits="userSpaceOnUse" color-interpolation-filters="sRGB">
<feFlood flood-opacity="0" result="BackgroundImageFix"/>
<feColorMatrix in="SourceAlpha" type="matrix" values="0 0 0 0 0 0 0 0 0 0 0 0 0 0 0 0 0 0 127 0"/>
<feOffset dy="4"/>
<feGaussianBlur stdDeviation="2"/>
<feColorMatrix type="matrix" values="0 0 0 0 0 0 0 0 0 0 0 0 0 0 0 0 0 0 0.25 0"/>
<feBlend mode="normal" in2="BackgroundImageFix" result="effect1_dropShadow"/>
<feBlend mode="normal" in="SourceGraphic" in2="effect1_dropShadow" result="shape"/>
</filter>
<filter id="filter7_d" x="1000" y="1347" width="411" height="333" filterUnits="userSpaceOnUse" color-interpolation-filters="sRGB">
<feFlood flood-opacity="0" result="BackgroundImageFix"/>
<feColorMatrix in="SourceAlpha" type="matrix" values="0 0 0 0 0 0 0 0 0 0 0 0 0 0 0 0 0 0 127 0"/>
<feOffset dy="4"/>
<feGaussianBlur stdDeviation="2"/>
<feColorMatrix type="matrix" values="0 0 0 0 0 0 0 0 0 0 0 0 0 0 0 0 0 0 0.25 0"/>
<feBlend mode="normal" in2="BackgroundImageFix" result="effect1_dropShadow"/>
<feBlend mode="normal" in="SourceGraphic" in2="effect1_dropShadow" result="shape"/>
</filter>
<filter id="filter8_d" x="551" y="940" width="411" height="333" filterUnits="userSpaceOnUse" color-interpolation-filters="sRGB">
<feFlood flood-opacity="0" result="BackgroundImageFix"/>
<feColorMatrix in="SourceAlpha" type="matrix" values="0 0 0 0 0 0 0 0 0 0 0 0 0 0 0 0 0 0 127 0"/>
<feOffset dy="4"/>
<feGaussianBlur stdDeviation="2"/>
<feColorMatrix type="matrix" values="0 0 0 0 0 0 0 0 0 0 0 0 0 0 0 0 0 0 0.25 0"/>
<feBlend mode="normal" in2="BackgroundImageFix" result="effect1_dropShadow"/>
<feBlend mode="normal" in="SourceGraphic" in2="effect1_dropShadow" result="shape"/>
</filter>
<filter id="filter9_d" x="1000" y="940" width="411" height="333" filterUnits="userSpaceOnUse" color-interpolation-filters="sRGB">
<feFlood flood-opacity="0" result="BackgroundImageFix"/>
<feColorMatrix in="SourceAlpha" type="matrix" values="0 0 0 0 0 0 0 0 0 0 0 0 0 0 0 0 0 0 127 0"/>
<feOffset dy="4"/>
<feGaussianBlur stdDeviation="2"/>
<feColorMatrix type="matrix" values="0 0 0 0 0 0 0 0 0 0 0 0 0 0 0 0 0 0 0.25 0"/>
<feBlend mode="normal" in2="BackgroundImageFix" result="effect1_dropShadow"/>
<feBlend mode="normal" in="SourceGraphic" in2="effect1_dropShadow" result="shape"/>
</filter>
</defs>
</svg>
