<svg width="25" height="25" viewBox="0 0 25 25" fill="none" xmlns="http://www.w3.org/2000/svg">
<path d="M24.8474 23.3745L17.5851 16.1121C18.9625 14.4116 19.7917 12.2497 19.7917 9.89587C19.7917 4.43932 15.3524 0 9.89582 0C4.43927 0 0 4.43932 0 9.89587C0 15.3524 4.43932 19.7917 9.89587 19.7917C12.2497 19.7917 14.4116 18.9625 16.1121 17.5851L23.3745 24.8475C23.5779 25.0508 23.9076 25.0508 24.1111 24.8475L24.8475 24.111C25.0508 23.9076 25.0508 23.5778 24.8474 23.3745ZM9.89587 17.7084C5.5878 17.7084 2.08335 14.2039 2.08335 9.89587C2.08335 5.5878 5.5878 2.08335 9.89587 2.08335C14.2039 2.08335 17.7084 5.5878 17.7084 9.89587C17.7084 14.2039 14.2039 17.7084 9.89587 17.7084Z" fill="#C4C4C4"/>
</svg>
